<svg width="510" height="377" viewBox="0 0 510 377" fill="none" xmlns="http://www.w3.org/2000/svg">
<g clip-path="url(#clip0_223_28)">
<path opacity="0.1" d="M33.3797 147.764H77.7051V208.203H36.6206C36.5158 208.827 36.411 209.448 36.293 210.073H77.7051V258.806C77.6352 258.806 77.5653 258.754 77.4998 258.727C76.335 258.264 75.1702 257.773 74.0055 257.255C73.7565 257.141 73.5119 257.023 73.2586 256.914C72.0938 256.364 70.929 255.781 69.7642 255.166C69.358 254.952 68.9518 254.73 68.5543 254.502C62.088 250.893 56.2108 246.317 51.1264 240.932C50.9736 240.788 50.8338 240.63 50.6896 240.495C49.982 239.726 49.2875 238.948 48.6149 238.153C48.3615 237.86 48.1169 237.563 47.868 237.279C47.073 236.309 46.3043 235.304 45.5617 234.295C45.4482 234.142 45.3433 233.994 45.2341 233.858C42.1923 229.648 39.6698 225.085 37.7214 220.27C37.6602 220.126 37.6034 219.969 37.5466 219.833C36.9439 218.304 36.3979 216.753 35.9261 215.171C35.7252 214.512 35.5287 213.861 35.3627 213.175C35.3015 212.978 35.2535 212.777 35.2011 212.58C32.7463 202.903 32.4624 192.845 32.4624 182.835C32.4624 181.67 32.4624 180.505 32.4624 179.34C32.4973 175.253 32.5454 171.171 32.6065 167.093C32.6298 166.045 32.6517 164.992 32.6721 163.934C32.7332 161.258 32.8206 158.575 32.9341 155.887C32.9603 155.144 32.9953 154.397 33.0346 153.658C33.0521 153.23 33.0739 152.802 33.1001 152.374C33.1787 150.827 33.2719 149.291 33.3797 147.764Z" fill="#00C4DE"/>
<path opacity="0.1" d="M77.7048 80.4708H53.3887C57.3432 74.2863 61.6619 68.3425 66.322 62.6709C69.9386 58.2319 73.7474 53.9064 77.7048 49.7383V80.4708Z" fill="#00C4DE"/>
<path opacity="0.1" d="M77.7047 82.332V145.894H33.519C33.519 145.711 33.5452 145.523 33.5627 145.339C33.602 144.837 33.6413 144.339 33.685 143.836C33.7287 143.251 33.7855 142.665 33.8423 142.089C33.899 141.512 33.9558 140.813 34.0257 140.179C34.0956 139.546 34.1524 138.904 34.2223 138.27C34.2922 137.637 34.362 137.003 34.4407 136.374C34.5193 135.745 34.5892 135.107 34.6765 134.478C34.7421 133.958 34.8076 133.433 34.8818 132.909C34.9823 132.171 35.0871 131.432 35.1963 130.698C35.1963 130.585 35.2313 130.476 35.2487 130.366C36.047 124.994 37.1318 119.667 38.4984 114.41C39.9336 108.896 41.7656 103.494 43.9802 98.2444C46.3333 92.7443 49.0897 87.4257 52.2267 82.332H77.7047Z" fill="#00C4DE"/>
<path opacity="0.1" d="M88.2925 147.764V208.203H182.971V147.764H88.2925ZM88.2925 210.073V261.978C88.8341 262.087 89.367 262.196 89.9042 262.288C90.6249 262.428 91.35 262.555 92.0882 262.664L92.525 262.725C92.8133 262.773 93.1059 262.812 93.3986 262.847C94.128 262.952 94.8574 263.031 95.5825 263.101C95.9232 263.136 96.277 263.162 96.6221 263.193L97.4651 263.254C97.9237 263.289 98.378 263.315 98.8322 263.332C99.1118 263.332 99.3913 263.354 99.6752 263.363C99.9591 263.372 100.112 263.363 100.339 263.363H101.165C101.54 263.363 101.916 263.363 102.287 263.363H102.768C103.143 263.363 103.519 263.363 103.89 263.328H103.912C104.174 263.328 104.432 263.328 104.694 263.297C104.768 263.302 104.843 263.302 104.917 263.297C105.135 263.297 105.353 263.297 105.563 263.271C105.613 263.267 105.662 263.267 105.712 263.271C106.196 263.241 106.686 263.201 107.179 263.158C107.673 263.114 108.14 263.062 108.634 263.009L109.625 262.887C113.677 262.319 117.684 261.467 121.615 260.335C130.451 257.871 139.087 254.424 147.919 251.903C159.328 248.648 171.942 247.044 182.967 251.007V210.073H88.2925ZM182.971 80.4708V0.00870768C172.606 -0.105358 162.27 1.10597 152.212 3.61325C128.237 9.63829 106.708 22.7064 88.2925 39.3965V80.4664H93.0579V82.332H88.2925V145.894H182.971V82.332H112.552V80.4621L182.971 80.4708ZM304.608 53.2904C298.677 53.0807 292.78 51.2063 287.442 48.3008C277.248 42.7564 269.097 34.1841 259.994 26.9576C241.082 11.8971 217.626 2.80496 193.563 0.550481V80.4708H328.71L329.047 80.1169L304.608 53.2904ZM316.921 51.1058L329.977 65.4409V47.3352C325.583 47.8901 321.757 49.179 316.921 51.0883V51.1058ZM329.977 274.867V210.073H302.136C302.066 209.797 301.987 209.518 301.9 209.238C301.983 209.518 302.057 209.797 302.132 210.073H193.563V256.927C194.594 257.692 195.612 258.5 196.621 259.313C197.71 260.204 198.792 261.106 199.866 262.017L200.949 262.913C201.469 263.35 201.998 263.787 202.522 264.202C203.573 265.049 204.631 265.888 205.697 266.719C206.23 267.138 206.766 267.55 207.305 267.955C215.836 274.477 224.835 280.363 234.228 285.567C236.334 286.742 238.461 287.874 240.601 288.979C242.025 289.713 243.459 290.433 244.903 291.138C247.07 292.195 249.254 293.214 251.455 294.196C271.751 303.309 293.213 309.561 315.227 312.774C320.113 313.493 325.021 314.061 329.951 314.478V274.858H330.388L329.977 274.867ZM193.563 82.332V145.894H329.977V82.332H193.563ZM193.563 147.756V208.203H329.977V147.764L193.563 147.756ZM340.565 47.2479V67.477L357.224 49.1834C351.703 48.2717 346.15 47.6265 340.565 47.2479ZM340.565 147.764V208.203H473.24V147.764H340.565ZM472.772 279.66L473.24 210.073H340.565V315.181C349.111 315.536 357.669 315.433 366.204 314.871H366.353C370.429 314.609 374.487 314.236 378.526 313.752H378.618C400.171 311.243 421.246 305.612 441.179 297.036M498.835 157.691C498.332 156.526 497.815 155.361 497.285 154.196C496.298 152.011 495.258 149.888 494.184 147.769H483.832V208.203H510C509.978 191.084 505.645 173.608 498.835 157.691ZM483.832 210.073V269.93C491.2 262.865 497.433 254.778 501.915 245.533C507.309 234.396 509.777 222.346 509.982 210.068L483.832 210.073ZM483.832 130.152V145.881H493.214C490.37 140.474 487.238 135.224 483.832 130.152ZM393.853 59.1101C393.163 58.8436 392.468 58.577 391.774 58.3236C384.451 55.6166 376.968 53.3665 369.367 51.5864L343.867 79.5751L343.369 80.1125L343.696 80.4664H434.453C421.812 71.7658 408.183 64.5968 393.853 59.1101ZM437.117 82.332H342.425L340.565 84.0316V145.894H356.879H473.24V115.922C462.718 103.194 450.574 91.9016 437.117 82.332Z" fill="#00C4DE"/>
<path opacity="0.1" d="M77.7047 114.397V145.894H33.519C33.519 145.711 33.5452 145.523 33.5627 145.339C33.602 144.837 33.6413 144.339 33.685 143.836C33.7287 143.251 33.7855 142.666 33.8423 142.089C33.899 141.512 33.9558 140.813 34.0257 140.18C34.0956 139.546 34.1524 138.904 34.2223 138.27C34.2922 137.637 34.362 137.003 34.4407 136.374C34.5193 135.745 34.5892 135.107 34.6765 134.478C34.7421 133.958 34.8076 133.434 34.8818 132.909C34.9823 132.171 35.0871 131.432 35.1963 130.698C35.1963 130.585 35.2313 130.476 35.2487 130.366C36.047 124.994 37.1318 119.667 38.4984 114.41L77.7047 114.397Z" fill="#00C4DE"/>
<path opacity="0.1" d="M33.3797 147.764H77.7051V208.203H36.6206C36.5158 208.827 36.411 209.448 36.293 210.073H77.7051V258.806C77.6352 258.806 77.5653 258.754 77.4998 258.727C76.335 258.264 75.1702 257.773 74.0055 257.255C73.7565 257.141 73.5119 257.023 73.2586 256.914C72.0938 256.364 70.929 255.781 69.7642 255.166C69.358 254.952 68.9518 254.73 68.5543 254.502C62.088 250.893 56.2108 246.317 51.1264 240.932C50.9736 240.788 50.8338 240.63 50.6896 240.495C49.982 239.726 49.2875 238.948 48.6149 238.153C48.3615 237.86 48.1169 237.563 47.868 237.279C47.073 236.309 46.3043 235.304 45.5617 234.295C45.4482 234.142 45.3433 233.994 45.2341 233.858C42.1923 229.648 39.6698 225.085 37.7214 220.27C37.6602 220.126 37.6034 219.969 37.5466 219.833C36.9439 218.304 36.3979 216.753 35.9261 215.171C35.7252 214.512 35.5287 213.861 35.3627 213.175C35.3015 212.978 35.2535 212.777 35.2011 212.58C32.7463 202.903 32.4624 192.845 32.4624 182.835C32.4624 181.67 32.4624 180.505 32.4624 179.34C32.4973 175.253 32.5454 171.171 32.6065 167.093C32.6298 166.045 32.6517 164.992 32.6721 163.934C32.7332 161.258 32.8206 158.575 32.9341 155.887C32.9603 155.144 32.9953 154.397 33.0346 153.658C33.0521 153.23 33.0739 152.802 33.1001 152.374C33.1787 150.827 33.2719 149.291 33.3797 147.764Z" fill="#00C4DE"/>
<path opacity="0.1" d="M121.62 91.4374V145.894H88.2881V91.4374H93.0404V72.9996H112.547V91.4374H121.62Z" fill="#00C4DE"/>
<path opacity="0.1" d="M121.615 147.76H88.2881V208.198H121.615V147.76Z" fill="#00C4DE"/>
<path opacity="0.1" d="M88.2925 210.073H121.62V260.318C117.688 261.45 113.682 262.301 109.63 262.865C109.298 262.913 108.97 262.952 108.638 262.987C108.149 263.044 107.664 263.097 107.179 263.14L105.716 263.258H105.568L104.921 263.293H104.698C104.436 263.293 104.179 263.324 103.916 263.328H103.895C103.519 263.328 103.148 263.354 102.772 263.363H102.292C101.92 263.363 101.549 263.363 101.169 263.363H100.348H99.6796C99.3957 263.363 99.1161 263.363 98.8322 263.328C98.3838 263.311 97.9295 263.284 97.4694 263.249L96.6264 263.188C96.277 263.162 95.9276 263.127 95.5825 263.092C94.8487 263.028 94.1207 262.945 93.3986 262.843L92.525 262.721L92.0882 262.66C91.3587 262.55 90.6337 262.428 89.9042 262.288C89.3626 262.192 88.8297 262.083 88.2925 261.969V210.073Z" fill="#00C4DE"/>
<path opacity="0.1" d="M329.973 85.006H302.49V145.89H329.973V85.006Z" fill="#00C4DE"/>
<path opacity="0.1" d="M329.977 147.76V208.203H193.563V182.132H266.223V197.511H302.49V147.76H329.977Z" fill="#00C4DE"/>
<path opacity="0.1" d="M330.41 274.88C330.266 274.88 330.121 274.88 329.973 274.854V314.504C325.049 314.099 320.142 313.532 315.253 312.804C293.232 309.593 271.762 303.344 251.456 294.235C245.594 291.591 239.852 288.708 234.229 285.589C224.838 280.383 215.841 274.496 207.309 267.977C205.16 266.334 203.043 264.655 200.958 262.939C199.513 261.742 198.08 260.519 196.621 259.335C195.616 258.518 194.599 257.709 193.563 256.94V210.073H302.132C302.053 209.793 301.983 209.518 301.905 209.238C301.988 209.518 302.066 209.793 302.136 210.073H329.977V274.85C330.121 274.854 330.266 274.867 330.41 274.88Z" fill="#00C4DE"/>
<path opacity="0.1" d="M401.654 80.4708H383.746V74.9045H391.77V58.3236C392.466 58.5799 393.159 58.8421 393.849 59.1101V74.9045H401.65L401.654 80.4708Z" fill="#00C4DE"/>
<path opacity="0.1" d="M444.805 145.894H356.879C356.888 145.896 356.897 145.896 356.905 145.894H356.866H340.565V85.0103H345.186V130.012H366.301V103.361H383.75V82.332H401.659V103.374H419.1V130.026H444.809L444.805 145.894Z" fill="#00C4DE"/>
<path opacity="0.1" d="M340.565 147.764V208.203H444.809V147.764H340.565ZM473.091 279.341L473.24 231.499H444.809V210.09H340.565V315.181C349.111 315.536 357.67 315.433 366.204 314.871H366.353C370.43 314.609 374.487 314.236 378.526 313.752H378.618C400.172 311.243 421.246 305.612 441.179 297.036" fill="#00C4DE"/>
<path opacity="0.1" d="M485.667 210.073H509.983C509.773 222.346 507.309 234.4 501.915 245.533C497.434 254.782 491.201 262.869 483.832 269.934V231.486H485.667V210.073Z" fill="#00C4DE"/>
<path opacity="0.1" d="M510 208.203H485.667V157.691H498.836C505.645 173.608 509.978 191.084 510 208.203Z" fill="#00C4DE"/>
<path opacity="0.1" d="M329.977 101.932H315.253V121.021H329.977V101.932Z" fill="#00C4DE"/>
<path opacity="0.1" d="M329.977 141.499H315.253V145.894H329.977V141.499Z" fill="#00C4DE"/>
<path opacity="0.1" d="M329.977 147.76H315.253V160.583H329.977V147.76Z" fill="#00C4DE"/>
<path opacity="0.1" d="M329.977 181.066H315.253V200.155H329.977V181.066Z" fill="#00C4DE"/>
<path opacity="0.1" d="M329.977 220.633H315.253V239.722H329.977V220.633Z" fill="#00C4DE"/>
<path opacity="0.1" d="M329.977 274.849C330.121 274.849 330.265 274.849 330.414 274.88C330.27 274.88 330.126 274.88 329.977 274.854V279.288H315.253V260.2H329.977V274.849Z" fill="#00C4DE"/>
<path opacity="0.1" d="M329.977 299.762V314.504C325.05 314.099 320.142 313.532 315.253 312.804V299.762H329.977Z" fill="#00C4DE"/>
<path opacity="0.1" d="M256.666 206.8H193.563V208.203H256.666V206.8Z" fill="#00C4DE"/>
<path opacity="0.1" d="M256.666 210.068H193.563V215.442H256.666V210.068Z" fill="#00C4DE"/>
<path opacity="0.1" d="M256.666 233.059H193.563V241.701H256.666V233.059Z" fill="#00C4DE"/>
<path opacity="0.1" d="M256.667 259.317V267.959H207.309C205.16 266.322 203.043 264.642 200.958 262.917C199.508 261.725 198.076 260.501 196.621 259.317H256.667Z" fill="#00C4DE"/>
<path opacity="0.1" d="M256.666 285.571V294.235H251.456C245.594 291.591 239.851 288.708 234.229 285.589L256.666 285.571Z" fill="#00C4DE"/>
<path opacity="0.1" d="M378.627 153.619H366.205V166.045H378.627V153.619Z" fill="#00C4DE"/>
<path opacity="0.1" d="M109.661 95.7235H97.2383V108.149H109.661V95.7235Z" fill="#00C4DE"/>
<path opacity="0.1" d="M109.661 124.586H97.2383V137.012H109.661V124.586Z" fill="#00C4DE"/>
<path opacity="0.1" d="M109.661 153.449H97.2383V165.874H109.661V153.449Z" fill="#00C4DE"/>
<path opacity="0.1" d="M109.661 182.307H97.2383V194.733H109.661V182.307Z" fill="#00C4DE"/>
<path opacity="0.1" d="M109.661 211.169H97.2383V223.595H109.661V211.169Z" fill="#00C4DE"/>
<path opacity="0.1" d="M109.661 240.032H97.2383V252.458H109.661V240.032Z" fill="#00C4DE"/>
<path opacity="0.1" d="M426.049 153.619H413.627V166.045H426.049V153.619Z" fill="#00C4DE"/>
<path opacity="0.1" d="M378.627 184.269H366.205V196.694H378.627V184.269Z" fill="#00C4DE"/>
<path opacity="0.1" d="M426.049 184.269H413.627V196.694H426.049V184.269Z" fill="#00C4DE"/>
<path opacity="0.1" d="M378.627 214.914H366.205V227.34H378.627V214.914Z" fill="#00C4DE"/>
<path opacity="0.1" d="M426.049 214.914H413.627V227.34H426.049V214.914Z" fill="#00C4DE"/>
<path opacity="0.1" d="M378.627 245.563H366.205V257.989H378.627V245.563Z" fill="#00C4DE"/>
<path opacity="0.1" d="M426.049 245.563H413.627V257.989H426.049V245.563Z" fill="#00C4DE"/>
<path opacity="0.1" d="M378.627 276.213H366.205V288.638H378.627V276.213Z" fill="#00C4DE"/>
<path opacity="0.1" d="M426.049 276.213H413.627V288.638H426.049V276.213Z" fill="#00C4DE"/>
<path opacity="0.1" d="M366.205 314.871V306.858H378.623V313.73L366.205 314.871Z" fill="#00C4DE"/>
<path opacity="0.1" d="M35.1963 130.353V137.462H77.7047V130.353H35.1963ZM39.4288 137.016H35.9345V130.803H39.4288V137.016ZM43.6613 137.016H40.167V130.803H43.6613V137.016ZM47.885 137.016H44.3907V130.803H47.885V137.016ZM52.1175 137.016H48.6232V130.803H52.1175V137.016ZM56.3456 137.016H52.8513V130.803H56.3456V137.016ZM60.5781 137.016H57.0838V130.803H60.5781V137.016ZM64.8106 137.016H61.3163V130.803H64.8106V137.016ZM69.0388 137.016H65.5444V130.803H69.0388V137.016ZM73.2669 137.016H69.7726V130.803H73.2669V137.016ZM77.4994 137.016H74.0051V130.803H77.4994V137.016Z" fill="#00C4DE"/>
<path opacity="0.1" d="M35.1963 151.046V158.154H77.7047V151.046H35.1963ZM39.4288 157.708H35.9345V151.496H39.4288V157.708ZM43.6613 157.708H40.167V151.496H43.6613V157.708ZM47.885 157.708H44.3907V151.496H47.885V157.708ZM52.1175 157.708H48.6232V151.496H52.1175V157.708ZM56.3456 157.708H52.8513V151.496H56.3456V157.708ZM60.5781 157.708H57.0838V151.496H60.5781V157.708ZM64.8106 157.708H61.3163V151.496H64.8106V157.708ZM69.0388 157.708H65.5444V151.496H69.0388V157.708ZM73.2669 157.708H69.7726V151.496H73.2669V157.708ZM77.4994 157.708H74.0051V151.496H77.4994V157.708Z" fill="#00C4DE"/>
<path opacity="0.1" d="M35.1963 171.742V178.846H77.7047V171.742H35.1963ZM39.4288 178.396H35.9345V172.183H39.4288V178.396ZM43.6613 178.396H40.167V172.183H43.6613V178.396ZM47.885 178.396H44.3907V172.183H47.885V178.396ZM52.1175 178.396H48.6232V172.183H52.1175V178.396ZM56.3456 178.396H52.8513V172.183H56.3456V178.396ZM60.5781 178.396H57.0838V172.183H60.5781V178.396ZM64.8106 178.396H61.3163V172.183H64.8106V178.396ZM69.0388 178.396H65.5444V172.183H69.0388V178.396ZM73.2669 178.396H69.7726V172.183H73.2669V178.396ZM77.4994 178.396H74.0051V172.183H77.4994V178.396Z" fill="#00C4DE"/>
<path opacity="0.1" d="M35.1963 192.434V199.539H77.7047V192.434H35.1963ZM39.4288 199.093H35.9345V192.871H39.4288V199.093ZM43.6613 199.093H40.167V192.871H43.6613V199.093ZM47.885 199.093H44.3907V192.871H47.885V199.093ZM52.1175 199.093H48.6232V192.871H52.1175V199.093ZM56.3456 199.093H52.8513V192.871H56.3456V199.093ZM60.5781 199.093H57.0838V192.871H60.5781V199.093ZM64.8106 199.093H61.3163V192.871H64.8106V199.093ZM69.0388 199.093H65.5444V192.871H69.0388V199.093ZM73.2669 199.093H69.7726V192.871H73.2669V199.093ZM77.4994 199.093H74.0051V192.871H77.4994V199.093Z" fill="#00C4DE"/>
<path opacity="0.1" d="M35.4019 213.118C35.5678 213.791 35.7644 214.455 35.9653 215.115V213.568H39.4596V219.776H37.5858C37.6382 219.925 37.695 220.078 37.7562 220.213H77.7224V213.118H35.4019ZM43.7009 219.776H40.2065V213.568H43.7009V219.776ZM47.9246 219.776H44.4303V213.568H47.9246V219.776ZM52.1571 219.776H48.6628V213.568H52.1571V219.776ZM56.3852 219.776H52.8909V213.568H56.3852V219.776ZM60.6177 219.776H57.1234V213.568H60.6177V219.776ZM64.8502 219.776H61.3559V213.568H64.8502V219.776ZM69.0783 219.776H65.584V213.568H69.0783V219.776ZM73.3065 219.776H69.8121V213.568H73.3065V219.776ZM77.539 219.776H74.0446V213.568H77.539V219.776Z" fill="#00C4DE"/>
<path opacity="0.1" d="M45.2471 233.81C45.3606 233.95 45.4655 234.107 45.5747 234.247H47.8853V237.231L48.6322 238.105V234.23H52.1265V240.495H50.6895C50.8292 240.639 50.9646 240.792 51.1263 240.932H77.6962V233.81H45.2471ZM56.3677 240.495H52.8734V234.256H56.3677V240.495ZM60.6002 240.495H57.1059V234.256H60.6002V240.495ZM64.8327 240.495H61.3384V234.256H64.8327V240.495ZM69.0608 240.495H65.5665V234.256H69.0608V240.495ZM73.289 240.495H69.7947V234.256H73.289V240.495ZM77.5215 240.495H74.0271V234.256H77.5215V240.495Z" fill="#00C4DE"/>
<path opacity="0.1" d="M68.5674 254.502C68.9692 254.73 69.3754 254.939 69.7817 255.162V254.944H73.276V256.914C73.5293 257.023 73.7696 257.141 74.0185 257.255V254.944H77.5128V258.727C77.5793 258.757 77.6479 258.782 77.7181 258.802V254.502H68.5674Z" fill="#00C4DE"/>
<path opacity="0.1" d="M329.973 274.849H330.41H329.973ZM301.9 209.238C301.983 209.518 302.058 209.797 302.132 210.073C302.066 209.797 301.988 209.518 301.9 209.238ZM93.0581 80.4708V82.332H112.57V80.462L93.0581 80.4708ZM329.977 274.849H330.414H329.977ZM301.9 209.238C301.983 209.518 302.058 209.797 302.132 210.073C302.066 209.797 301.988 209.518 301.9 209.238ZM329.973 274.849H330.41H329.973ZM301.9 209.238C301.983 209.518 302.058 209.797 302.132 210.073C302.066 209.797 301.988 209.518 301.9 209.238Z" fill="#00C4DE"/>
<path opacity="0.1" d="M384.126 377C407.631 377 426.687 373.939 426.687 370.162C426.687 366.386 407.631 363.325 384.126 363.325C360.62 363.325 341.565 366.386 341.565 370.162C341.565 373.939 360.62 377 384.126 377Z" fill="#00C4DE"/>
<path opacity="0.1" d="M192.175 370.162C215.68 370.162 234.735 367.101 234.735 363.325C234.735 359.548 215.68 356.487 192.175 356.487C168.669 356.487 149.614 359.548 149.614 363.325C149.614 367.101 168.669 370.162 192.175 370.162Z" fill="#00C4DE"/>
<path d="M241.173 182.521C241.163 182.477 241.14 182.438 241.108 182.407C240.457 181.765 232.158 170.025 232.158 170.025C232.158 170.025 231.721 168.714 231.014 167.01C231.241 166.717 231.411 166.383 231.516 166.027C231.554 165.876 231.582 165.723 231.599 165.569C231.599 165.52 231.634 165.481 231.647 165.433C231.799 164.841 231.784 164.218 231.603 163.633C231.555 163.783 231.495 163.929 231.424 164.07C231.26 163.561 231.04 163.072 230.769 162.611C229.668 160.714 228.096 159.115 226.938 157.267C225.186 154.396 224.489 151.003 224.969 147.673C224.969 147.843 224.969 148.018 224.969 148.188C225.012 147.528 225.1 146.871 225.231 146.222C225.413 145.483 225.657 144.761 225.96 144.064C227 141.682 228.681 139.607 229.703 137.217C230.046 136.411 230.307 135.572 230.481 134.714C230.841 133.28 230.972 131.798 230.87 130.323C230.87 130.672 230.813 131.022 230.76 131.367C230.65 127.821 229.218 124.444 226.746 121.899C223.178 118.312 218.054 116.918 213.153 116.184C211.094 115.944 209.127 115.193 207.431 114C205.549 112.781 203.116 112.488 200.915 112.754C198.384 113.028 196.033 114.191 194.28 116.036C191.952 118.596 190.943 122.222 188.226 124.381C186.579 125.691 184.491 126.303 182.574 127.194C180.656 128.086 178.844 129.379 178.228 131.293C178.228 131.293 178.228 131.266 178.228 131.253V131.363L178.201 131.432C177.564 133.696 178.796 135.998 179.438 138.257C180.106 140.595 180.15 143.063 180.185 145.479C180.233 148.433 180.276 151.391 180.228 154.349C180.206 155.511 180.167 156.686 180.08 157.844C179.046 158.157 178.042 158.56 177.079 159.05C176.101 159.688 172.44 163.642 172.44 163.642L165.281 191.001L165.377 191.111L165.281 191.482L165.644 191.399C166.657 192.491 169.684 195.602 172.951 197.542L173.257 202.907C173.257 202.907 173.624 208.29 178.573 210.514C178.686 212.38 179.04 219.956 177.402 222.957C176.268 225.15 175.734 227.604 175.856 230.07C175.856 230.07 176.428 234.623 175.777 237.017C175.397 238.617 175.369 240.281 175.694 241.893C175.694 241.893 175.694 242.422 175.694 243.33C175.694 248.176 175.751 263.704 175.694 265.46C175.611 267.536 175.694 298.229 175.694 298.229C175.694 298.229 175.288 313.569 173.986 317.724C172.685 321.879 173.012 335.637 173.012 335.637C173.012 335.637 172.196 352.026 175.083 355.259C175.083 355.403 175.057 355.552 175.052 355.696C175.052 355.762 175.052 355.836 175.052 355.901C175.017 357.147 175.258 358.47 176.328 358.877C178.512 359.716 181.399 362.232 181.945 362.953C182.491 363.674 185.666 365.47 189.807 364.989C192.401 364.698 195.011 364.578 197.621 364.631C197.621 364.631 199.255 364.334 198.726 362.302C198.386 361.035 197.11 359.087 196.202 357.806C196.368 357.85 196.529 357.885 196.682 357.916L196.839 357.946H196.962C197.029 357.95 197.096 357.95 197.163 357.946H197.25C197.331 357.953 197.413 357.953 197.494 357.946C198.591 357.841 202.679 359.746 203.409 361.005C204.138 362.263 206.711 363.22 208.65 363.46C209.803 363.6 212.712 363.364 215.154 363.049C216.383 362.922 217.601 362.7 218.797 362.385C219.373 362.167 219.496 361.468 219.33 360.681C219.134 359.682 218.6 358.781 217.818 358.13C217.111 357.627 216.176 356.303 215.486 355.22L215.302 354.927C216.521 353.765 218.722 349.964 219.391 349.177C220.203 348.22 218.08 313.228 218.08 313.228V295.686L221.334 279.083L223.61 270.297L225.563 257.032C225.563 257.032 228.978 241.539 227.926 240.019C227.926 239.988 227.052 224.036 226.135 220.205C225.737 218.496 225.838 214.651 226.074 210.911C226.32 210.667 226.492 210.357 226.569 210.018C226.647 209.679 226.626 209.325 226.51 208.998C226.445 208.774 226.36 208.556 226.257 208.347C226.257 208.281 226.257 208.211 226.257 208.146C228.144 207.277 230.116 206.607 232.141 206.145C235.395 205.507 234.582 203.829 234.582 203.829C234.582 203.829 235.316 202.392 235.801 201.513C236.286 200.635 235.884 192.884 235.801 192.247C235.77 191.989 235.569 190.564 235.338 188.948C236.382 188.205 237.74 187.283 239.221 186.409C242.038 184.74 241.405 182.98 241.173 182.521ZM198.717 293.292C198.717 293.292 196.276 299.522 197.254 301.117C198.233 302.711 197.093 308.632 197.093 308.632L196.276 317.418C196.276 317.418 194 333.715 194.813 337.547C195.45 340.553 195.686 349.531 195.76 353.276C195.705 353.297 195.65 353.324 195.599 353.354L195.49 353.411C195.865 351.939 195.708 348.959 193.843 342.964L193.686 318.204C193.686 318.204 193.397 289.604 195.656 286.406C197.914 283.208 198.713 277.777 198.713 277.777C198.713 277.777 198.224 285.611 197.905 287.686C197.586 289.761 198.717 293.292 198.717 293.292ZM194.171 354.835C194.149 354.888 194.122 354.94 194.105 354.988L193.983 354.831C194.045 354.837 194.108 354.838 194.171 354.835Z" fill="url(#paint0_linear_223_28)"/>
<path d="M219.072 364.648C217.809 365.133 210.965 365.959 209.052 365.728C207.139 365.496 204.605 364.526 203.885 363.259C203.164 361.992 199.124 360.078 198.04 360.201C197.596 360.214 197.153 360.152 196.73 360.017C195.983 359.791 195.253 359.51 194.546 359.178C194.447 358.627 194.464 358.062 194.594 357.518C194.619 357.408 194.651 357.3 194.69 357.195C194.945 356.478 195.472 355.891 196.158 355.561L196.315 355.486C196.618 355.355 196.934 355.259 197.258 355.198C200.692 354.538 214.857 355.862 214.857 355.862C214.857 355.862 215.254 356.574 215.8 357.457C216.482 358.549 217.408 359.882 218.106 360.384C218.881 361.046 219.406 361.952 219.596 362.953C219.762 363.727 219.64 364.434 219.072 364.648Z" fill="white"/>
<path opacity="0.1" d="M219.072 364.648C217.81 365.133 210.97 365.959 209.056 365.728C207.143 365.496 204.61 364.522 203.885 363.259C203.16 361.996 199.128 360.078 198.045 360.201C196.962 360.323 194.551 359.178 194.551 359.178C194.551 359.178 194.175 357.431 195.267 356.238L197.451 357.789C197.451 357.789 203.295 359.602 204.378 361.284C205.462 362.966 207.436 363.906 210.288 364.076C212.42 364.216 217.316 363.386 219.609 362.971C219.762 363.727 219.644 364.434 219.072 364.648Z" fill="black"/>
<path d="M198.163 366.877C195.586 366.826 193.009 366.948 190.449 367.239C186.347 367.72 183.216 365.929 182.67 365.19C182.124 364.452 179.298 361.957 177.127 361.083C176.065 360.673 175.816 359.336 175.864 358.086C175.864 358.02 175.864 357.946 175.864 357.881C175.905 357.089 176.022 356.303 176.214 355.534L193.209 355.172L194.681 357.168L194.909 357.474L195.804 358.693C195.804 358.693 196.21 359.226 196.743 360.004C197.643 361.315 198.901 363.25 199.237 364.53C199.774 366.58 198.163 366.877 198.163 366.877Z" fill="white"/>
<path opacity="0.1" d="M198.163 366.877C195.586 366.826 193.009 366.948 190.449 367.239C186.352 367.72 183.216 365.929 182.674 365.19C182.132 364.452 179.298 361.935 177.127 361.092C176.065 360.681 175.816 359.344 175.864 358.095C177.079 358.379 179.63 359.104 180.63 360.367C181.94 362.053 184.286 364.889 187.618 365.068C190.309 365.212 196.861 364.731 199.263 364.539C199.779 366.58 198.163 366.877 198.163 366.877Z" fill="black"/>
<path opacity="0.1" d="M196.14 355.543C195.944 357.002 195.337 357.396 194.9 357.483C194.793 357.504 194.683 357.504 194.577 357.483C194.519 357.479 194.462 357.47 194.406 357.457C194.406 357.457 179.145 360.83 176.061 358.099C175.983 358.029 175.91 357.953 175.843 357.872C175.883 357.08 176 356.295 176.192 355.526L193.188 355.163L194.66 357.16C194.915 356.443 195.442 355.856 196.127 355.526L196.14 355.543Z" fill="black"/>
<path opacity="0.1" d="M215.796 357.439C215.455 357.815 215.172 358.029 214.992 357.955C214.189 357.632 207.602 356.509 205.51 357.474C203.418 358.44 196.337 357.632 196.337 357.632C196.337 357.632 196.337 356.793 196.298 355.447C196.601 355.316 196.917 355.219 197.241 355.159C200.674 354.499 214.84 355.823 214.84 355.823C214.84 355.823 215.255 356.557 215.796 357.439Z" fill="black"/>
<path d="M225.763 258.609L223.833 271.953L221.588 280.796L218.373 297.512V315.207C218.373 315.207 220.461 350.414 219.657 351.375C218.853 352.336 215.8 357.811 214.996 357.492C214.193 357.173 207.606 356.046 205.514 357.007C203.422 357.968 196.341 357.168 196.341 357.168C196.341 357.168 196.18 343.506 195.376 339.648C194.572 335.79 196.822 319.393 196.822 319.393L197.625 310.554C197.625 310.554 198.752 304.603 197.787 302.995C196.822 301.388 199.233 295.131 199.233 295.131C199.233 295.131 198.11 291.588 198.433 289.499C198.757 287.411 199.233 279.533 199.233 279.533C199.233 279.533 198.433 285.003 196.201 288.215C193.969 291.426 194.253 320.206 194.253 320.206L194.411 345.11C198.433 358.296 194.411 357.007 194.411 357.007C194.411 357.007 179.149 360.384 176.065 357.649C172.982 354.914 173.864 337.7 173.864 337.7C173.864 337.7 173.545 323.876 174.829 319.699C176.113 315.522 176.52 300.086 176.52 300.086C176.52 300.086 176.437 269.218 176.52 267.134C176.581 265.386 176.52 249.74 176.52 244.851C176.52 243.942 176.52 243.405 176.52 243.405L178.363 238.826L200.202 236.091H210.65C210.65 236.091 226.375 239.787 228 241.382C228.034 241.408 228.064 241.441 228.087 241.478C229.14 243.02 225.763 258.609 225.763 258.609Z" fill="#00C4DE"/>
<path opacity="0.1" d="M199.246 328.699C199.246 328.699 204.051 340.273 206.318 341.077C208.585 341.881 199.246 328.699 199.246 328.699Z" fill="black"/>
<path opacity="0.1" d="M201.024 345.739C201.024 345.739 217.246 346.543 217.085 348.312C216.923 350.082 201.024 345.739 201.024 345.739Z" fill="black"/>
<path opacity="0.1" d="M179.32 341.112C179.962 341.719 191.694 342.859 190.729 343.969C189.763 345.079 180.285 347.237 180.285 347.237L179.32 341.112Z" fill="black"/>
<path opacity="0.1" d="M177.394 321.145C177.394 321.626 179.805 336.577 180.451 337.219C181.098 337.861 186.396 338.503 186.396 338.503L177.394 321.145Z" fill="black"/>
<path d="M194.887 116.783C192.585 119.356 191.589 123.004 188.907 125.18C187.278 126.491 185.216 127.116 183.32 128.007C181.425 128.898 179.547 130.257 178.983 132.276C178.354 134.548 179.568 136.868 180.206 139.14C180.866 141.49 180.905 143.946 180.944 146.406C180.988 149.381 181.036 152.356 180.984 155.332C180.905 159.967 180.521 164.817 178.062 168.745C186.941 171.572 196.385 171.956 205.697 172.319C207.487 172.447 209.285 172.401 211.065 172.183C212.609 171.876 214.135 171.489 215.639 171.026C218.611 170.239 221.675 169.847 224.75 169.859C226.091 169.859 227.458 169.942 228.751 169.593C230.044 169.243 231.289 168.347 231.638 167.054C231.948 165.892 231.494 164.655 230.9 163.611C229.817 161.706 228.279 160.116 227.117 158.237C225.931 156.253 225.228 154.017 225.063 151.711C224.898 149.405 225.277 147.092 226.17 144.959C227.2 142.561 228.86 140.472 229.874 138.069C230.911 135.489 231.187 132.665 230.669 129.933C230.15 127.201 228.858 124.675 226.947 122.655C223.422 119.046 218.364 117.648 213.524 116.905C211.487 116.664 209.543 115.913 207.872 114.721C206.016 113.497 203.609 113.2 201.434 113.471C198.925 113.752 196.601 114.928 194.887 116.783Z" fill="#3F3D56"/>
<g opacity="0.1">
<path d="M226.305 142.438C225.414 144.544 225.033 146.829 225.191 149.11C225.289 147.479 225.666 145.877 226.305 144.374C227.331 141.975 228.991 139.887 230.005 137.484C230.833 135.477 231.181 133.305 231.022 131.14C230.932 132.657 230.588 134.149 230.005 135.553C228.991 137.956 227.331 140.04 226.305 142.438Z" fill="black"/>
<path d="M181.075 145.811C181.102 147.524 181.128 149.241 181.132 150.954C181.132 148.594 181.11 146.239 181.075 143.885C181.04 141.442 180.997 138.969 180.337 136.614C179.9 135.12 179.254 133.604 179.027 132.097C178.638 134.237 179.743 136.409 180.337 138.545C180.997 140.879 181.04 143.369 181.075 145.811Z" fill="black"/>
<path d="M228.9 167.093C227.589 167.447 226.244 167.369 224.903 167.36C221.83 167.34 218.768 167.725 215.796 168.505C214.292 168.967 212.766 169.352 211.223 169.658C209.441 169.88 207.641 169.926 205.85 169.798C196.852 169.444 187.728 169.064 179.11 166.491C178.854 167.062 178.562 167.616 178.236 168.151C187.116 170.973 196.56 171.362 205.868 171.725C207.659 171.853 209.458 171.806 211.24 171.585C212.778 171.281 214.298 170.898 215.796 170.436C218.762 169.654 221.818 169.264 224.885 169.278C226.226 169.278 227.589 169.361 228.882 169.007C230.175 168.653 231.42 167.766 231.769 166.473C231.917 165.874 231.901 165.247 231.726 164.656C231.337 165.879 230.136 166.731 228.9 167.093Z" fill="black"/>
</g>
<path d="M215.962 161.916C215.639 162.641 214.276 168.907 213.953 169.549C213.629 170.191 211.865 180.472 211.703 181.048C211.542 181.625 200.072 178.637 200.072 178.637L193.166 172.848L186.068 165.783C186.068 165.783 185.858 159.408 191.087 157.363C191.442 157.224 191.807 157.11 192.179 157.023C198.521 155.498 197.883 136.208 197.883 136.208L210.9 141.831C210.9 141.831 208.488 153.086 208.571 155.257C208.593 155.987 209.165 156.441 209.912 156.717C211.067 157.045 212.27 157.175 213.468 157.101C213.468 157.101 216.285 161.195 215.962 161.916Z" fill="#FBBEBE"/>
<path d="M239.265 183.054L241.112 183.539C241.112 183.539 242.48 185.619 239.265 187.554C237.223 188.794 235.264 190.165 233.399 191.657L223.899 194.549L222.068 188.804L230.909 182.093L239.265 183.054Z" fill="#00C4DE"/>
<path opacity="0.1" d="M239.265 183.054L241.112 183.539C241.112 183.539 242.48 185.619 239.265 187.554C237.223 188.794 235.264 190.165 233.399 191.657L223.899 194.549L222.068 188.804L230.909 182.093L239.265 183.054Z" fill="black"/>
<path d="M169.933 188.603L166.238 192.22C166.238 192.22 172.903 199.936 178.031 200.417C183.159 200.897 186.466 194.549 186.466 194.549L182.028 187.558L169.933 188.603Z" fill="#00C4DE"/>
<path opacity="0.1" d="M169.933 188.603L166.238 192.22C166.238 192.22 172.903 199.936 178.031 200.417C183.159 200.897 186.466 194.549 186.466 194.549L182.028 187.558L169.933 188.603Z" fill="black"/>
<path opacity="0.1" d="M205.033 148.813C212.133 148.813 217.888 143.056 217.888 135.955C217.888 128.853 212.133 123.096 205.033 123.096C197.934 123.096 192.179 128.853 192.179 135.955C192.179 143.056 197.934 148.813 205.033 148.813Z" fill="black"/>
<path d="M205.033 147.847C212.133 147.847 217.888 142.09 217.888 134.989C217.888 127.888 212.133 122.131 205.033 122.131C197.934 122.131 192.179 127.888 192.179 134.989C192.179 142.09 197.934 147.847 205.033 147.847Z" fill="#FBBEBE"/>
<path opacity="0.1" d="M228.096 242.937C225.169 243.272 222.286 243.918 219.496 244.864C214.691 246.463 177.04 244.89 176.516 244.864C176.516 243.955 176.516 243.418 176.516 243.418L178.359 238.839L200.198 236.104H210.646C210.646 236.104 226.371 239.8 227.996 241.395C228.061 242.356 228.096 242.937 228.096 242.937Z" fill="black"/>
<path opacity="0.1" d="M215.962 161.916C215.639 162.641 214.276 168.907 213.953 169.549C213.629 170.191 211.865 180.472 211.703 181.048C211.542 181.625 200.072 178.637 200.072 178.637L193.166 172.848L186.068 165.783C186.068 165.783 185.858 159.408 191.087 157.363L204.068 172.293L209.912 156.717C211.067 157.045 212.27 157.175 213.468 157.101C213.468 157.101 216.285 161.195 215.962 161.916Z" fill="black"/>
<path d="M204.068 172.773L190.781 157.481C190.003 156.985 189.114 156.689 188.194 156.621C187.274 156.553 186.351 156.715 185.509 157.092C182.534 158.381 178.839 159.426 177.874 160.068C176.909 160.71 173.292 164.686 173.292 164.686L184.063 192.871L179.32 211.436C179.32 211.436 180.045 220.921 178.197 224.377C177.072 226.587 176.545 229.053 176.668 231.529C176.668 231.529 177.232 236.113 176.59 238.52C176.215 240.13 176.186 241.801 176.507 243.422C176.507 243.422 214.678 245.03 219.496 243.422C222.285 242.474 225.168 241.828 228.096 241.495C228.096 241.495 227.222 225.417 226.349 221.559C225.475 217.701 227.074 202.995 227.074 202.995L226.03 187.24L232.294 171.074C232.294 171.074 228.9 160.71 225.362 159.666C225.362 159.666 218.937 158.137 217.569 157.416C216.202 156.695 212.184 156.048 212.184 156.048L210.074 156.756L204.068 172.773Z" fill="#00C4DE"/>
<path opacity="0.1" d="M222.606 186.708L194.646 184.806C193.939 184.758 193.326 185.292 193.278 186L190.276 230.158C190.228 230.865 190.763 231.478 191.47 231.526L219.43 233.428C220.138 233.476 220.751 232.941 220.799 232.234L223.8 188.076C223.849 187.368 223.314 186.756 222.606 186.708Z" fill="black"/>
<path d="M223.569 185.749L195.609 183.847C194.902 183.799 194.289 184.333 194.241 185.041L191.239 229.199C191.191 229.906 191.726 230.519 192.433 230.567L220.393 232.469C221.101 232.517 221.713 231.982 221.762 231.275L224.763 187.117C224.811 186.409 224.277 185.797 223.569 185.749Z" fill="#3F3D56"/>
<path d="M222.647 189.21L196.055 187.401L193.322 227.601L219.914 229.409L222.647 189.21Z" fill="white"/>
<path opacity="0.1" d="M220.262 199.471L198.541 197.95L198.117 204.005L219.838 205.526L220.262 199.471Z" fill="black"/>
<path opacity="0.1" d="M219.476 223.535L216.029 223.301L215.815 226.457L219.262 226.691L219.476 223.535Z" fill="black"/>
<path opacity="0.1" d="M216.076 215.919L198.431 214.718L198.217 217.874L215.861 219.075L216.076 215.919Z" fill="black"/>
<path d="M219.356 187.707L200.983 186.457L200.653 191.309L219.026 192.558L219.356 187.707Z" fill="#3F3D56"/>
<path opacity="0.1" d="M219.356 187.707L200.983 186.457L200.653 191.309L219.026 192.558L219.356 187.707Z" fill="black"/>
<path opacity="0.1" d="M205.676 242.05C205.676 242.05 205.514 265.845 199.246 279.507C199.246 279.507 206.803 261.502 206.803 260.781C206.803 260.06 210.978 252.501 209.86 250.251C208.742 248.001 205.676 242.05 205.676 242.05Z" fill="black"/>
<path opacity="0.1" d="M206.016 131.773C205.776 129.667 206.292 127.544 207.471 125.783C207.331 127.548 207.83 129.305 208.877 130.733C209.924 132.161 211.45 133.164 213.175 133.56C213.028 133.432 212.923 133.263 212.874 133.074C212.825 132.885 212.834 132.686 212.9 132.503C213.796 133.517 214.481 134.718 215.495 135.609C216.508 136.501 218.028 137.034 219.221 136.4C220.841 135.526 220.858 133.224 220.439 131.432C219.539 127.618 217.693 124.091 215.071 121.178C214.417 120.298 213.568 119.581 212.59 119.083C211.613 118.586 210.533 118.322 209.436 118.312C206.955 118.12 204.378 118.338 202.155 119.452C200.904 120.135 199.732 120.954 198.661 121.895L192.546 126.884C191.957 127.308 191.454 127.839 191.061 128.448C190.798 128.958 190.641 129.515 190.598 130.087C190.441 131.721 190.744 133.366 191.471 134.838C192.197 136.31 193.32 137.55 194.712 138.419C194.683 137.127 195.038 135.856 195.732 134.767C196.427 133.678 197.43 132.82 198.613 132.302C198.798 132.457 198.948 132.65 199.053 132.868C199.158 133.085 199.215 133.323 199.22 133.565L200.508 131.266C200.7 130.848 201.002 130.49 201.382 130.231C202.177 129.794 203.169 130.31 203.846 130.926C204.523 131.542 205.182 132.311 206.091 132.407L206.126 128.986" fill="black"/>
<path d="M206.016 131.293C205.776 129.185 206.291 127.061 207.471 125.298C207.078 128.794 209.712 132.402 213.18 133.075C213.032 132.949 212.927 132.78 212.878 132.592C212.829 132.404 212.838 132.205 212.905 132.022C213.8 133.036 214.486 134.233 215.499 135.129C216.512 136.024 218.032 136.553 219.225 135.915C220.845 135.041 220.863 132.739 220.444 130.952C219.544 127.137 217.697 123.61 215.075 120.697C214.262 119.705 213.236 118.908 212.075 118.364C211.234 118.053 210.35 117.873 209.454 117.831C206.973 117.639 204.396 117.853 202.173 118.967C200.922 119.653 199.751 120.474 198.678 121.414L192.563 126.404C191.974 126.827 191.47 127.357 191.078 127.968C190.815 128.477 190.658 129.034 190.615 129.606C190.459 131.24 190.762 132.884 191.489 134.355C192.215 135.826 193.338 137.066 194.73 137.934C194.701 136.642 195.057 135.372 195.751 134.283C196.446 133.194 197.448 132.336 198.63 131.817C198.815 131.973 198.965 132.166 199.069 132.383C199.174 132.601 199.231 132.838 199.237 133.08L200.522 130.79C200.712 130.371 201.014 130.013 201.395 129.755C202.19 129.318 203.182 129.833 203.859 130.449C204.536 131.065 205.195 131.83 206.104 131.931L206.139 128.505" fill="#3F3D56"/>
<path d="M212.105 212.397C210.983 211.829 192.419 214.726 192.419 214.726C192.419 214.726 189.362 213.852 181.971 212.637C174.581 211.423 174.109 204.196 174.109 204.196L173.301 189.73L175.795 187.545L186.479 194.536C186.479 194.536 186.645 198.071 186.479 198.709C186.374 199.145 186.094 199.665 186.121 200.019C186.129 200.115 186.168 200.206 186.233 200.277C186.298 200.348 186.384 200.396 186.479 200.413C187.204 200.596 197.084 202.195 197.084 202.195C197.084 202.195 219.985 200.627 225.694 208.343C226.146 208.909 226.488 209.555 226.703 210.247C228.118 215.521 213.123 212.9 212.105 212.397Z" fill="#FBBEBE"/>
<path opacity="0.1" d="M226.716 210.278C225.842 210.667 225.3 210.946 225.3 210.946C225.3 210.946 217.106 210.706 212.502 209.037C207.899 207.368 202.303 207.665 202.303 207.665C202.303 207.665 183.12 204.362 186.094 200.05C186.102 200.146 186.142 200.236 186.206 200.307C186.271 200.378 186.358 200.426 186.452 200.443C187.177 200.627 197.058 202.226 197.058 202.226C197.058 202.226 219.958 200.657 225.667 208.373C226.134 208.936 226.489 209.583 226.716 210.278Z" fill="black"/>
<path d="M234.683 184.823C234.683 184.823 235.81 192.78 235.888 193.426C235.967 194.073 236.373 201.863 235.888 202.75C235.404 203.637 234.683 205.079 234.683 205.079C234.683 205.079 235.487 206.765 232.272 207.412C229.057 208.058 225.283 209.981 225.283 209.981C225.283 209.981 217.085 209.741 212.507 208.054C207.93 206.368 202.304 206.687 202.304 206.687C202.304 206.687 177.953 202.505 188.401 197.402C198.849 192.299 206.239 199.211 206.239 199.211L217.888 198.49C217.888 198.49 222.23 195.834 223.436 196.078C224.287 196.187 225.151 196.047 225.925 195.676L226.008 187.235L234.683 184.823Z" fill="#FBBEBE"/>
<path opacity="0.1" d="M175.611 165.293L173.279 165.171L166.211 192.697C166.211 192.697 173.842 190.765 177.131 192.697C180.42 194.628 186.452 195.025 186.452 195.025L184.203 173.084L175.611 165.293Z" fill="black"/>
<path d="M175.611 164.808L173.279 164.686L166.211 192.212C166.211 192.212 173.842 190.28 177.131 192.212C180.42 194.143 186.452 194.54 186.452 194.54L184.203 172.599L175.611 164.808Z" fill="#00C4DE"/>
<path opacity="0.1" d="M229.061 170.838L232.272 171.563C232.272 171.563 240.47 183.36 241.112 184.019C241.754 184.679 238.055 187.078 236.53 187.078C235.006 187.078 227.532 187.952 225.362 189.97C223.191 191.989 224.095 181.831 224.095 181.599C224.095 181.367 226.79 174.958 226.79 174.958L229.061 170.838Z" fill="black"/>
<path d="M229.061 170.357L232.272 171.078C232.272 171.078 240.47 182.897 241.112 183.539C241.754 184.181 238.055 186.597 236.53 186.597C235.006 186.597 227.532 187.471 225.362 189.49C223.191 191.508 224.095 181.35 224.095 181.118C224.095 180.887 226.807 174.455 226.807 174.455L229.061 170.357Z" fill="#00C4DE"/>
<g opacity="0.1">
<path d="M207.449 125.338C207.43 125.003 207.437 124.667 207.471 124.333C206.806 125.331 206.348 126.453 206.126 127.631V128.645C206.126 128.645 206.126 128.623 206.126 128.61V128.85C206.126 129.558 206.126 130.27 206.104 130.978H206.043V131.306C206.043 131.192 206.043 131.083 206.021 130.969C205.147 130.83 204.523 130.096 203.872 129.51C203.221 128.925 202.203 128.365 201.408 128.815C201.027 129.074 200.725 129.432 200.535 129.851L199.237 132.14C199.232 131.899 199.174 131.662 199.07 131.445C198.965 131.228 198.815 131.036 198.63 130.882C197.447 131.4 196.444 132.258 195.75 133.347C195.055 134.436 194.7 135.707 194.73 136.999C193.536 136.251 192.538 135.23 191.817 134.019C191.096 132.809 190.674 131.445 190.585 130.039C190.509 131.609 190.853 133.17 191.581 134.563C192.31 135.955 193.397 137.128 194.73 137.96C194.701 136.669 195.057 135.398 195.751 134.309C196.446 133.22 197.448 132.362 198.63 131.843C198.815 131.999 198.964 132.192 199.069 132.409C199.174 132.627 199.231 132.864 199.237 133.106L200.522 130.816C200.712 130.398 201.014 130.039 201.395 129.781C202.19 129.344 203.182 129.86 203.859 130.476C204.536 131.092 205.195 131.856 206.104 131.957C206.104 130.838 206.115 129.723 206.139 128.61C206.353 127.443 206.798 126.33 207.449 125.338Z" fill="black"/>
<path d="M205.973 129.737C205.994 129.44 206.029 129.143 206.073 128.863L206.121 127.658C205.99 128.343 205.94 129.041 205.973 129.737Z" fill="black"/>
<path d="M219.225 134.95C218.032 135.588 216.512 135.055 215.499 134.163C214.486 133.272 213.8 132.07 212.905 131.057C212.838 131.24 212.829 131.439 212.878 131.628C212.927 131.817 213.033 131.986 213.18 132.114C213.092 132.114 213.009 132.07 212.926 132.049C213.8 133.053 214.495 134.233 215.499 135.107C216.504 135.981 218.032 136.531 219.225 135.893C220.417 135.256 220.758 133.761 220.653 132.306C220.575 133.451 220.164 134.443 219.225 134.95Z" fill="black"/>
<path d="M212.9 132.04C211.439 131.642 210.135 130.806 209.162 129.646C208.19 128.485 207.595 127.055 207.457 125.547C207.209 128.977 209.794 132.416 213.179 133.075C213.035 132.95 212.932 132.785 212.882 132.6C212.832 132.416 212.838 132.221 212.9 132.04Z" fill="black"/>
</g>
<path d="M422.664 203.449C422.664 203.449 420.943 203.209 420.943 200.705C420.943 198.202 419.711 193.514 419.711 193.514C419.711 193.514 418.645 185.356 417.173 184.063C415.701 182.77 413.81 175.176 413.81 175.176C413.81 175.176 413.487 171.056 412.827 170.169C412.168 169.282 411.277 167.111 409.962 164.013C408.647 160.915 403.179 158.792 403.179 158.792C403.179 158.792 393.268 153.042 390.459 151.168C390.202 151.013 389.962 150.831 389.743 150.626C389.254 149.988 387.122 149.975 387.122 149.975C386.899 148.564 386.685 146.947 386.616 145.484C386.616 145.326 386.616 145.169 386.616 145.012C389.747 143.16 392.106 140.24 393.259 136.789C393.312 136.623 393.355 136.453 393.403 136.282C393.595 136.223 393.772 136.124 393.922 135.991C394.073 135.859 394.194 135.696 394.277 135.513C394.526 134.95 394.535 134.294 394.849 133.766C395.216 133.145 395.915 132.813 396.465 132.35C397.854 131.166 398.212 129.178 398.147 127.374C398.103 125.905 397.867 124.429 397.959 122.974C397.959 122.851 397.959 122.729 397.985 122.607C398.011 122.393 398.042 122.17 398.081 121.96C398.295 120.877 398.763 119.854 399.025 118.779C399.287 117.705 399.313 116.494 398.702 115.568C397.806 114.209 395.941 113.938 394.303 113.82C392.447 113.663 390.809 113.864 389.599 112.322C389.044 111.516 388.418 110.762 387.729 110.067C387.485 109.84 385.109 108.385 385.109 108.293C382.784 107.212 380.146 107.009 377.683 107.721C376.447 108.079 375.29 108.665 374.036 108.958C371.345 109.595 368.244 108.905 365.955 110.447C364.68 111.321 363.916 112.715 363.199 114.065C362.617 115.178 362.026 116.292 361.426 117.407C360.456 119.238 359.478 121.099 359.072 123.127C358.987 123.57 358.933 124.018 358.91 124.468C358.91 124.63 358.91 124.791 358.91 124.953C358.91 125.023 358.91 125.093 358.91 125.163C358.91 125.311 358.91 125.46 358.936 125.6C358.962 125.739 358.936 125.779 358.967 125.871C358.997 125.962 359.006 126.168 359.032 126.307C359.059 126.447 359.111 126.696 359.163 126.884C359.163 126.967 359.216 127.046 359.242 127.129C359.268 127.212 359.338 127.422 359.395 127.566C359.452 127.71 359.456 127.719 359.491 127.793C359.556 127.946 359.635 128.094 359.714 128.23C359.749 128.287 359.775 128.343 359.81 128.4C359.93 128.605 360.064 128.8 360.212 128.986C361.142 130.152 362.522 130.895 363.54 131.987C363.54 132.031 363.54 132.075 363.54 132.118C363.54 132.236 363.54 132.354 363.54 132.477C363.602 134.913 364.259 137.297 365.452 139.422C366.646 141.546 368.341 143.347 370.389 144.667C370.389 144.833 370.411 145.003 370.419 145.173C370.505 146.469 370.489 147.769 370.371 149.062C370.193 148.853 369.97 148.686 369.719 148.574C369.469 148.463 369.196 148.408 368.921 148.415C368.734 148.406 368.545 148.422 368.362 148.463L368.323 148.433V148.472C367.362 148.708 366.178 149.709 365.047 152.553C365.047 152.553 361.605 156.433 358.984 156.271C356.364 156.109 349.729 160.312 349.729 160.312C349.729 160.312 343.255 164.511 341.866 168.793C341.09 171.222 340.158 173.597 339.075 175.906L331.052 192.386L329.58 205.494C329.58 205.494 330.396 211.309 330.235 212.2C330.073 213.092 333.594 221.087 333.594 221.087C333.594 221.087 345.225 241.526 349.978 242.575L350.318 242.339C350.523 242.442 350.738 242.521 350.96 242.575L351.939 241.889C351.999 242.657 351.973 243.429 351.86 244.191C351.209 246.214 352.109 259.383 353.254 261.965C354.398 264.547 353.992 298.408 353.992 298.408L353.83 301.392C353.83 301.392 353.83 301.488 353.869 301.654L353.83 302.362L353.948 302.423C354.07 303.372 354.031 304.336 353.83 305.272C353.42 306.583 353.254 310.283 353.254 310.283C353.254 310.283 349.978 331.203 351.533 335.406C353.088 339.609 354.402 344.214 354.402 344.214C354.402 344.214 356.04 349.457 354.481 350.331C352.922 351.205 348.506 352.756 349.405 354.936C350.235 356.954 353.385 362.363 353.852 363.154L353.813 363.591L353.171 370.551C353.275 371.47 353.524 372.367 353.909 373.208C354.612 374.728 355.975 376.297 358.578 376.126C359.015 376.096 359.517 376.047 360.011 375.982C364.767 375.34 370.62 373.216 370.62 373.216C370.317 373.024 370.039 372.793 369.795 372.53C369.561 372.304 369.376 372.032 369.25 371.732C369.125 371.431 369.062 371.108 369.065 370.783C369.135 369.511 366.764 363.477 366.169 361.988L366.034 361.656C366.034 361.656 371.442 355.998 370.542 350.99C370.542 350.99 364.558 347.495 366.528 345.573C368.498 343.65 372.018 338.145 372.018 338.145C372.018 338.145 372.18 317.545 372.018 314.473C371.85 312.337 371.951 310.188 372.319 308.077C372.385 307.762 372.464 307.452 372.547 307.142C375.273 307.553 378.027 307.762 380.784 307.767C381.792 307.767 382.811 307.746 383.842 307.705C383.842 307.997 383.855 308.311 383.881 308.649C384.108 313.752 384.532 322.705 384.877 326.03C385.366 330.792 388.07 343.642 388.07 343.642C388.07 343.642 382.912 346.949 388.97 355.115C388.97 355.115 388.97 358.068 388.568 358.501C388.139 359.902 387.793 361.328 387.533 362.77C387.28 364.303 387.175 365.863 387.585 366.667C388.568 368.598 394.465 368.441 394.465 368.441C394.512 368.43 394.56 368.422 394.609 368.419C395.722 368.301 396.847 368.407 397.919 368.729C398.991 369.052 399.987 369.585 400.851 370.298C403.091 372.098 411.591 371.311 416.199 370.735C418.003 370.503 419.209 370.298 419.209 370.298C419.267 370.093 419.288 369.88 419.27 369.669C419.222 368.537 418.335 366.055 412.325 363.84C412.325 363.84 406.673 360.039 406.752 356.727H406.625H405.974C406.385 356.714 406.673 356.714 406.673 356.714C406.673 356.714 404.458 348.636 405.363 347.976C406.267 347.316 403.559 338.364 403.559 338.364C403.559 338.364 402.008 323.334 401.921 322.285C401.926 321.382 402.065 320.484 402.331 319.62L401.921 311.375C401.921 311.375 401.842 308.636 401.921 307.745C401.912 306.971 401.851 306.199 401.737 305.433C401.698 305.128 401.659 304.809 401.615 304.494C403.733 303.957 405.109 303.463 405.109 303.463L404.865 274.78C406.664 271.284 406.996 263.612 406.987 258.177C406.987 254.682 406.83 252.095 406.83 252.095L409.289 248.08C409.289 248.08 409.857 243.274 408.957 242.221C408.56 241.745 408.739 241.251 409.067 240.844C409.239 240.703 409.421 240.575 409.613 240.46C409.591 240.43 409.572 240.397 409.556 240.364C409.727 240.22 409.91 240.09 410.102 239.975C410.102 239.975 409.228 238.621 410.01 238.048C410.744 238.546 411.399 238.944 411.897 239.228C411.862 239.547 411.827 239.73 411.827 239.73L412.037 239.293C412.517 239.564 412.81 239.73 412.81 239.73C412.81 239.73 416.662 232.054 416.579 230.926C416.496 229.799 419.2 225.028 419.2 225.028C419.2 225.028 419.528 222.52 421.004 221.472C422.48 220.423 422.148 212.825 422.148 212.825C422.148 212.825 422.559 208.867 423.542 207.255C424.525 205.642 422.664 203.449 422.664 203.449ZM348.951 200.08L349.025 201.911C348.589 201.208 348.274 200.705 348.274 200.705L348.951 200.08Z" fill="url(#paint1_linear_223_28)"/>
<path d="M413.037 236.41L412.093 240.429C412.093 240.429 404.537 236.563 403.179 231.669C401.82 226.776 405.454 224.91 405.454 224.91L412.5 227.89L413.037 236.41Z" fill="white"/>
<path opacity="0.1" d="M413.037 236.41L412.093 240.429C412.093 240.429 404.537 236.563 403.179 231.669C401.82 226.776 405.454 224.91 405.454 224.91L412.5 227.89L413.037 236.41Z" fill="black"/>
<path d="M370.629 373.212C370.629 373.212 363.64 375.781 358.836 376.104C356.285 376.275 354.944 374.711 354.254 373.203C353.879 372.372 353.634 371.488 353.529 370.582L354.162 363.657L354.494 359.973L364.702 357.317L366.148 361.743L366.283 362.075C366.86 363.556 369.192 369.559 369.122 370.813C369.117 371.138 369.177 371.46 369.299 371.76C369.422 372.06 369.604 372.333 369.834 372.561C370.07 372.811 370.338 373.03 370.629 373.212Z" fill="white"/>
<path d="M418.344 369.69C418.362 369.902 418.341 370.115 418.283 370.32C418.283 370.32 403.336 372.81 400.278 370.32C399.419 369.592 398.417 369.052 397.337 368.734C396.257 368.415 395.123 368.326 394.006 368.471C394.006 368.471 388.223 368.629 387.258 366.724C386.856 365.924 386.961 364.373 387.21 362.848C387.464 361.414 387.802 359.996 388.223 358.602L388.455 358.418L389.83 357.313L405.939 356.836H406.062C405.983 360.131 411.526 363.91 411.526 363.91C417.427 366.095 418.296 368.563 418.344 369.69Z" fill="white"/>
<path opacity="0.1" d="M418.348 369.69C418.364 369.902 418.342 370.115 418.283 370.32C418.283 370.32 403.336 372.81 400.283 370.32C399.423 369.592 398.42 369.051 397.339 368.733C396.258 368.415 395.123 368.326 394.006 368.471C394.006 368.471 388.218 368.629 387.253 366.724C386.856 365.924 386.956 364.373 387.205 362.844C389.433 363.067 392.949 363.622 394.329 364.95C396.417 366.96 399.955 368.97 402.122 369.131C403.834 369.236 414.015 369.559 418.348 369.69Z" fill="black"/>
<path opacity="0.1" d="M370.629 373.212C370.629 373.212 363.641 375.781 358.836 376.104C356.285 376.275 354.944 374.711 354.254 373.203C356.036 373.802 358.504 374.427 359.801 373.854C361.339 373.168 366.79 372.731 369.847 372.543C370.078 372.799 370.341 373.024 370.629 373.212Z" fill="black"/>
<path d="M380.999 166.163C375.233 163.921 367.816 156.516 369.668 153.055C370.078 152.181 370.322 151.239 370.389 150.277C370.508 148.969 370.526 147.655 370.442 146.344C370.311 144.197 370.053 142.06 369.668 139.944C369.668 139.944 387.669 140.35 386.62 143.002C386.314 143.784 386.262 145.134 386.349 146.642C386.437 148.149 386.651 149.866 386.878 151.312C387.188 153.291 387.507 154.807 387.507 154.807C387.507 154.807 386.402 156.35 385.76 156.433C385.118 156.516 389.272 169.374 380.999 166.163Z" fill="#CF6F80"/>
<path opacity="0.1" d="M366.265 362.053L366.13 362.202C360.749 355.692 354.241 363.81 354.241 363.81L354.145 363.635L354.476 359.952L364.684 357.295L366.13 361.721L366.265 362.053Z" fill="black"/>
<path opacity="0.1" d="M406.07 357.295C406.07 357.295 402.139 357.217 400.042 359.069C397.946 360.922 387.812 359.467 388.249 359.069C388.376 358.867 388.454 358.638 388.476 358.401L389.852 357.295L405.961 356.819C406.022 357.125 406.07 357.295 406.07 357.295Z" fill="black"/>
<path d="M372.961 306.172C372.669 306.896 372.447 307.647 372.298 308.413C371.933 310.513 371.832 312.65 371.996 314.775C372.158 317.833 371.996 338.329 371.996 338.329C371.996 338.329 368.541 343.795 366.611 345.721C364.68 347.648 370.542 351.108 370.542 351.108C371.415 356.094 366.121 361.721 366.121 361.721C360.74 355.211 354.232 363.325 354.232 363.325C354.232 363.325 350.694 357.208 349.812 355.023C348.929 352.839 353.267 351.331 354.791 350.44C356.315 349.549 354.712 344.323 354.712 344.323C354.712 344.323 353.428 339.74 351.899 335.559C350.371 331.377 353.585 310.567 353.585 310.567C353.585 310.567 353.751 306.867 354.149 305.578C354.347 304.647 354.387 303.69 354.267 302.746C354.241 302.428 354.21 302.165 354.188 301.982C354.166 301.798 354.149 301.72 354.149 301.72L354.21 301.615L356.394 297.543C356.394 297.543 374.01 303.607 372.961 306.172Z" fill="#00C4DE"/>
<path d="M406.07 356.815C406.07 356.815 402.139 356.732 400.043 358.562C397.946 360.393 387.813 358.964 388.249 358.562C388.686 358.16 388.647 355.189 388.647 355.189C382.702 347.067 387.773 343.773 387.773 343.773C387.773 343.773 385.122 330.993 384.642 326.252C384.305 322.945 383.89 314.019 383.668 308.964C383.571 306.779 383.515 305.272 383.515 305.272L388.328 304.315L388.953 304.193L400.667 301.838C400.667 301.838 400.991 304.022 401.209 305.809C401.319 306.572 401.379 307.341 401.388 308.112C401.314 308.986 401.388 311.725 401.388 311.725L401.79 319.921C401.531 320.782 401.395 321.675 401.388 322.574C401.471 323.622 402.995 338.569 402.995 338.569C402.995 338.569 405.647 347.491 404.743 348.133C403.838 348.775 406.07 356.815 406.07 356.815Z" fill="#00C4DE"/>
<path opacity="0.1" d="M386.62 143.015C386.314 143.797 386.262 145.147 386.349 146.655C383.938 148.107 381.166 148.849 378.352 148.797C375.538 148.744 372.796 147.899 370.441 146.357C370.311 144.21 370.053 142.073 369.668 139.957C369.668 139.957 387.668 140.363 386.62 143.015Z" fill="black"/>
<path d="M393.569 133.368C393.617 137.332 392.088 141.153 389.319 143.989C386.551 146.826 382.769 148.446 378.806 148.494C374.843 148.541 371.023 147.012 368.187 144.243C365.351 141.473 363.732 137.69 363.684 133.726C363.684 133.604 363.684 133.49 363.684 133.368C363.684 129.403 365.259 125.6 368.062 122.796C370.865 119.992 374.667 118.417 378.631 118.417C382.595 118.417 386.397 119.992 389.2 122.796C392.003 125.6 393.578 129.403 393.578 133.368H393.569Z" fill="#CF6F80"/>
<path opacity="0.1" d="M380.999 166.163C375.233 163.921 367.816 156.516 369.668 153.055C370.078 152.181 370.322 151.239 370.389 150.277L378.282 156.769L383.165 160.776L386.878 151.325C387.188 153.304 387.507 154.821 387.507 154.821C387.507 154.821 386.402 156.363 385.76 156.446C385.118 156.529 389.272 169.374 380.999 166.163Z" fill="black"/>
<path d="M401.41 194.855L394.819 305.613L386.223 306.176L363.959 241.954L367.611 165.708L368.384 149.599L378.282 157.73L383.165 161.737L386.987 152.007L394.094 158.202L401.41 194.855Z" fill="#00C4DE"/>
<path opacity="0.1" d="M372.961 306.172C372.669 306.896 372.447 307.647 372.297 308.413C366.037 307.449 359.956 305.551 354.258 302.781L354.14 302.72L354.179 302.017V301.65L356.363 297.578C356.363 297.578 374.01 303.607 372.961 306.172Z" fill="black"/>
<path opacity="0.1" d="M388.472 308.431C386.873 308.704 385.26 308.889 383.641 308.986C383.545 306.801 383.488 305.294 383.488 305.294L388.328 304.315L388.472 308.431Z" fill="black"/>
<path opacity="0.1" d="M401.226 305.809C398.12 306.617 393.32 307.526 389.031 306.958L388.97 304.193L400.684 301.838C400.684 301.838 400.995 304.005 401.226 305.809Z" fill="black"/>
<path opacity="0.1" d="M388.952 307.465C371.044 310.524 354.643 301.755 354.643 301.755L354.8 298.784C354.8 298.784 355.206 265.102 354.079 262.52C352.952 259.938 352.074 246.861 352.712 244.864C353.35 242.867 350.384 212.72 350.384 212.72L349.903 200.487L332.305 193.334L340.167 176.937C341.229 174.639 342.142 172.274 342.902 169.859C344.269 165.599 350.615 161.418 350.615 161.418C350.615 161.418 357.124 157.241 359.696 157.398C362.269 157.556 365.641 153.702 365.641 153.702C368.131 147.354 370.384 150.207 370.384 150.207C370.384 150.513 370.385 150.207 370.262 151.146C369.389 158.115 384.388 180.135 384.602 180.528L386.048 215.333L387.494 259.378L388.952 307.465Z" fill="black"/>
<path d="M388.472 307.465C370.564 310.524 354.158 301.755 354.158 301.755L354.319 298.784C354.319 298.784 354.721 265.102 353.594 262.52C352.467 259.938 351.589 246.848 352.231 244.834C352.874 242.819 349.89 212.703 349.89 212.703L349.405 200.469L331.812 193.317L339.674 176.92C340.733 174.622 341.646 172.259 342.408 169.846C343.775 165.599 350.144 161.414 350.144 161.414C350.144 161.414 356.652 157.237 359.22 157.394C361.788 157.551 365.178 153.702 365.178 153.702C367.672 147.354 370.419 150.207 370.419 150.207C370.419 150.513 370.157 150.644 370.297 151.146C372.219 157.905 383.942 180.135 384.156 180.528L385.602 215.333L387.017 259.4L388.472 307.465Z" fill="white"/>
<path opacity="0.1" d="M383.646 181.512C381.719 180.708 371.516 169.055 371.516 169.055V166.403C371.145 165.529 368.934 166.062 367.148 166.674L367.917 150.565L368.79 151.29C370.699 158.045 383.436 181.123 383.646 181.512Z" fill="black"/>
<path d="M384.13 180.55C382.2 179.742 371.996 168.094 371.996 168.094V165.437C371.625 164.564 369.419 165.097 367.628 165.708L368.384 149.617L369.258 150.338C371.184 157.084 383.916 180.157 384.13 180.55Z" fill="white"/>
<path opacity="0.1" d="M354.642 238.66C354.883 238.66 367.095 237.375 367.095 237.375C367.095 237.375 374.49 251.925 374.005 255.459C373.521 258.994 372.643 262.131 369.668 261.576C366.693 261.021 353.66 262.013 353.66 262.013L354.642 238.66Z" fill="black"/>
<path d="M354.158 237.694C354.402 237.694 366.615 236.41 366.615 236.41C366.615 236.41 374.005 250.981 373.525 254.476C373.044 257.971 372.158 261.148 369.188 260.593C366.217 260.038 353.175 261.03 353.175 261.03L354.158 237.694Z" fill="white"/>
<path d="M363.361 230.883C363.361 230.883 374.569 236.912 374.809 238.747C375.05 240.582 369.105 237.943 367.821 237.62C366.975 237.419 366.115 237.285 365.248 237.218L356.683 237.45L363.361 230.883Z" fill="#CF6F80"/>
<path opacity="0.1" d="M380.514 182.263C381.165 182.263 381.693 181.735 381.693 181.083C381.693 180.432 381.165 179.904 380.514 179.904C379.862 179.904 379.334 180.432 379.334 181.083C379.334 181.735 379.862 182.263 380.514 182.263Z" fill="black"/>
<path d="M380.514 181.782C381.165 181.782 381.693 181.254 381.693 180.603C381.693 179.951 381.165 179.423 380.514 179.423C379.862 179.423 379.334 179.951 379.334 180.603C379.334 181.254 379.862 181.782 380.514 181.782Z" fill="#3F3D56"/>
<path opacity="0.1" d="M382.685 233.33C383.336 233.33 383.864 232.801 383.864 232.15C383.864 231.498 383.336 230.97 382.685 230.97C382.033 230.97 381.505 231.498 381.505 232.15C381.505 232.801 382.033 233.33 382.685 233.33Z" fill="black"/>
<path d="M382.685 232.845C383.336 232.845 383.864 232.316 383.864 231.665C383.864 231.013 383.336 230.485 382.685 230.485C382.033 230.485 381.505 231.013 381.505 231.665C381.505 232.316 382.033 232.845 382.685 232.845Z" fill="#3F3D56"/>
<path opacity="0.1" d="M381.693 207.796C382.344 207.796 382.872 207.268 382.872 206.617C382.872 205.965 382.344 205.437 381.693 205.437C381.042 205.437 380.514 205.965 380.514 206.617C380.514 207.268 381.042 207.796 381.693 207.796Z" fill="black"/>
<path d="M381.693 207.316C382.344 207.316 382.872 206.788 382.872 206.136C382.872 205.485 382.344 204.956 381.693 204.956C381.042 204.956 380.514 205.485 380.514 206.136C380.514 206.788 381.042 207.316 381.693 207.316Z" fill="#3F3D56"/>
<path d="M408.879 236.973C408.879 236.973 409.683 238.179 408.879 238.721C408.075 239.263 408.958 240.652 408.958 240.652C408.958 240.652 406.953 241.823 407.835 242.885C408.717 243.947 408.158 248.713 408.158 248.713L405.747 252.729C405.747 252.729 405.891 255.302 405.9 258.78C405.9 264.206 405.581 271.835 403.817 275.313L404.052 303.848C404.052 303.848 395.609 306.936 388.542 305.993L387.494 260.204C387.494 260.204 389.022 234.238 389.586 229.258C389.916 226.672 390.05 224.065 389.988 221.459C389.988 221.459 389.748 213.664 388.939 210.051C388.939 210.051 388.066 194.374 387.979 190.036C387.939 187.96 388.048 181.905 388.171 176.146C388.306 169.85 388.459 163.913 388.459 163.913L386.865 151.29C386.865 151.29 388.459 151.133 388.939 151.771C389.155 151.972 389.389 152.152 389.638 152.308C392.394 154.169 402.117 159.893 402.117 159.893C402.117 159.893 407.499 162.034 408.787 165.101C410.076 168.168 410.971 170.344 411.596 171.218C412.22 172.092 412.561 176.199 412.561 176.199C412.561 176.199 414.413 183.757 415.859 185.037C417.305 186.318 418.344 194.444 418.344 194.444L405.568 204.493C405.568 204.493 404.446 221.21 404.205 221.856C403.965 222.503 408.879 236.973 408.879 236.973Z" fill="white"/>
<path d="M409.364 236.973C409.364 236.973 410.163 238.179 409.364 238.721C408.564 239.263 409.438 240.652 409.438 240.652C409.438 240.652 407.433 241.823 408.315 242.885C409.198 243.947 408.639 248.713 408.639 248.713L406.236 252.729C406.236 252.729 406.38 255.302 406.394 258.78C406.394 264.206 406.075 271.835 404.31 275.313L404.55 303.848C404.55 303.848 396.107 306.937 389.04 305.993L387.996 260.204C387.996 260.204 389.52 234.238 390.088 229.258C390.418 226.672 390.551 224.065 390.486 221.459C390.486 221.459 390.245 213.664 389.442 210.051C389.442 210.051 388.568 194.374 388.476 190.036C388.437 187.96 388.546 181.905 388.669 176.146C388.804 169.85 388.957 163.913 388.957 163.913L386.852 151.12C386.852 151.12 388.957 151.12 389.442 151.771C389.655 151.974 389.889 152.155 390.141 152.308C392.892 154.17 402.615 159.893 402.615 159.893C402.615 159.893 407.983 162.034 409.294 165.101C410.604 168.168 411.478 170.344 412.102 171.218C412.727 172.092 413.068 176.199 413.068 176.199C413.068 176.199 414.92 183.757 416.365 185.038C417.811 186.318 418.855 194.444 418.855 194.444L406.079 204.493C406.079 204.493 404.957 221.21 404.712 221.856C404.467 222.503 409.364 236.973 409.364 236.973Z" fill="white"/>
<path opacity="0.1" d="M394.063 167.622L395.22 170.986L389.145 177.103C389.28 170.807 389.433 164.87 389.433 164.87L387.328 152.081C387.328 152.081 389.433 152.081 389.918 152.732C390.131 152.936 390.365 153.116 390.617 153.269L395.78 168.164L394.063 167.622Z" fill="black"/>
<path d="M393.569 166.656L394.727 170.016L388.655 176.133C388.786 169.837 388.944 163.9 388.944 163.9L386.834 151.107C386.834 151.107 388.944 151.107 389.424 151.758C389.638 151.96 389.873 152.14 390.123 152.295L395.316 167.203L393.569 166.656Z" fill="white"/>
<path opacity="0.1" d="M393.569 133.368C393.571 134.942 393.323 136.507 392.835 138.004C392.753 138.017 392.669 138.014 392.588 137.995C392.507 137.975 392.431 137.94 392.364 137.89C392.246 133.958 390.315 130.261 387.935 127.12C387.265 126.173 386.455 125.333 385.532 124.63C384.598 123.928 383.437 123.6 382.274 123.708C380.963 123.887 379.806 124.778 378.483 124.892C376.735 125.036 375.172 123.826 373.438 123.769C372.732 123.775 372.037 123.931 371.397 124.228C370.758 124.525 370.189 124.956 369.729 125.49C368.817 126.566 368.14 127.821 367.742 129.174C367.055 131.226 366.681 133.371 366.632 135.535C366.611 136.758 366.493 138.292 365.357 138.738C365.443 137.839 365.341 136.931 365.057 136.074C364.774 135.216 364.315 134.427 363.71 133.757L363.684 133.726C363.684 133.604 363.684 133.49 363.684 133.368C363.684 129.403 365.259 125.6 368.062 122.796C370.865 119.992 374.667 118.417 378.631 118.417C382.595 118.417 386.397 119.992 389.2 122.796C392.003 125.6 393.578 129.403 393.578 133.368H393.569Z" fill="black"/>
<path d="M384.834 109.63C382.564 108.562 379.982 108.36 377.574 109.062C376.364 109.421 375.224 110.002 373.997 110.295C371.376 110.928 368.319 110.242 366.069 111.776C364.82 112.65 364.069 114.03 363.37 115.376L361.623 118.701C360.67 120.523 359.71 122.375 359.312 124.381C358.915 126.386 359.155 128.632 360.426 130.248C361.348 131.419 362.719 132.158 363.724 133.263C364.327 133.937 364.785 134.729 365.067 135.588C365.35 136.448 365.452 137.356 365.366 138.257C366.502 137.82 366.615 136.278 366.641 135.054C366.69 132.89 367.064 130.746 367.751 128.693C368.149 127.34 368.826 126.086 369.738 125.01C370.198 124.474 370.766 124.043 371.406 123.746C372.045 123.448 372.741 123.291 373.447 123.284C375.194 123.345 376.762 124.555 378.491 124.407C379.802 124.298 380.964 123.406 382.283 123.227C383.446 123.117 384.608 123.446 385.541 124.149C386.465 124.85 387.274 125.69 387.939 126.64C390.324 129.785 392.259 133.464 392.373 137.409C392.866 137.768 393.578 137.296 393.823 136.737C394.067 136.177 394.076 135.522 394.386 134.989C394.744 134.373 395.43 134.041 395.967 133.578C397.33 132.402 397.671 130.423 397.619 128.627C397.566 126.832 397.217 125.01 397.557 123.245C397.763 122.166 398.226 121.148 398.479 120.077C398.732 119.007 398.763 117.805 398.165 116.883C397.291 115.533 395.452 115.262 393.849 115.136C392.028 114.978 390.398 115.179 389.237 113.646C388.69 112.846 388.076 112.095 387.402 111.4C387.162 111.168 384.834 109.727 384.834 109.63Z" fill="#512E4E"/>
<path opacity="0.1" d="M337.346 201.767L332.786 193.33L331.34 206.35C331.34 206.35 332.144 212.135 331.982 213.022C331.82 213.909 335.275 221.861 335.275 221.861C335.275 221.861 346.689 242.199 351.349 243.243L367.074 231.988L362.898 226.684C362.898 226.684 361.452 226.12 361.09 226.684C361.09 226.684 353.332 213.341 352.533 212.38C351.734 211.418 351.886 209.483 351.886 209.483C351.886 209.483 350.681 208.198 351.083 206.992C351.485 205.787 348.776 201.61 348.776 201.61L351.266 199.281L337.346 201.767Z" fill="black"/>
<path d="M333.026 192.365L331.82 193.33L330.375 206.35C330.375 206.35 331.178 212.135 331.017 213.022C330.855 213.909 334.314 221.861 334.314 221.861C334.314 221.861 345.723 242.199 350.384 243.243L366.134 231.988L361.954 226.684C361.954 226.684 360.509 226.12 360.146 226.684C360.146 226.684 352.393 213.341 351.589 212.38C350.786 211.418 350.947 209.483 350.947 209.483C350.947 209.483 349.742 208.198 350.144 206.992C350.545 205.787 347.811 201.61 347.811 201.61L350.301 199.281L333.026 192.365Z" fill="white"/>
<path opacity="0.1" d="M407.835 243.387C408.708 244.449 408.158 249.22 408.158 249.22L405.747 253.209C405.747 253.209 405.891 255.787 405.9 259.265L401.846 260.532C401.479 260.646 401.09 260.671 400.712 260.605C400.333 260.538 399.976 260.382 399.67 260.15C399.364 259.917 399.118 259.615 398.953 259.268C398.787 258.921 398.707 258.539 398.719 258.155L399.422 235.61L408.879 239.224C408.075 239.783 408.957 241.155 408.957 241.155C408.957 241.155 406.952 242.326 407.835 243.387Z" fill="black"/>
<path d="M408.315 242.907C409.189 243.964 408.638 248.735 408.638 248.735L406.236 252.729C406.236 252.729 406.38 255.302 406.393 258.78L402.266 260.069C401.907 260.181 401.527 260.206 401.157 260.142C400.787 260.077 400.438 259.925 400.138 259.698C399.839 259.471 399.599 259.175 399.437 258.836C399.275 258.497 399.197 258.124 399.208 257.749L399.911 235.125L409.364 238.747C408.555 239.307 409.438 240.678 409.438 240.678C409.438 240.678 407.433 241.845 408.315 242.907Z" fill="white"/>
<path d="M411.452 232.15C411.452 232.15 410.81 236.253 409.202 236.493C407.595 236.733 406.874 243.13 405.271 242.907C403.668 242.684 404.729 236.956 404.786 235.846C404.843 234.737 403.039 230.14 404.384 229.096C405.73 228.052 410.01 229.096 410.01 229.096L411.452 232.15Z" fill="#CF6F80"/>
<path opacity="0.1" d="M414.85 200.561L417.877 194.444C417.877 194.444 419.086 199.106 419.086 201.596C419.086 204.087 420.773 204.332 420.773 204.332C420.773 204.332 422.62 206.516 421.646 208.111C420.672 209.706 420.283 213.655 420.283 213.655C420.283 213.655 420.602 221.21 419.156 222.254C417.711 223.298 417.387 225.793 417.387 225.793C417.387 225.793 414.736 230.533 414.819 231.661C414.902 232.788 411.124 240.421 411.124 240.421C411.124 240.421 412.971 230.935 402.205 226.837C402.205 226.837 402.122 223.621 402.925 222.739C403.729 221.856 404.983 221.428 404.196 216.989C403.41 212.55 403.969 207.198 403.969 206.127C403.969 205.057 406.38 198.385 406.38 198.385L414.85 200.561Z" fill="black"/>
<path d="M416.195 193.57L418.842 194.444C418.842 194.444 420.052 199.106 420.052 201.597C420.052 204.087 421.738 204.332 421.738 204.332C421.738 204.332 423.586 206.516 422.612 208.111C421.638 209.706 421.245 213.655 421.245 213.655C421.245 213.655 421.568 221.21 420.122 222.254C418.676 223.298 418.375 225.793 418.375 225.793C418.375 225.793 415.723 230.533 415.806 231.661C415.889 232.788 412.107 240.421 412.107 240.421C412.107 240.421 413.955 230.935 403.188 226.837C403.188 226.837 403.109 223.621 403.913 222.739C404.716 221.856 405.97 221.428 405.184 216.989C404.398 212.55 404.957 207.198 404.957 206.127C404.957 205.057 407.368 198.385 407.368 198.385L416.195 193.57Z" fill="white"/>
<path opacity="0.1" d="M357.718 352.113C357.718 352.113 361.937 349.461 364.706 351.388C367.476 353.315 357.718 352.113 357.718 352.113Z" fill="black"/>
<path opacity="0.1" d="M390.512 343.913C390.512 343.913 394.246 343.432 397.382 346.809C400.519 350.187 390.512 343.913 390.512 343.913Z" fill="black"/>
<g opacity="0.1">
<path d="M395.968 132.617C395.43 133.084 394.74 133.412 394.382 134.028C394.076 134.556 394.068 135.212 393.823 135.775C393.579 136.339 392.867 136.807 392.369 136.448C392.255 132.516 390.32 128.824 387.94 125.678C387.274 124.73 386.465 123.892 385.542 123.192C384.607 122.488 383.444 122.157 382.279 122.266C380.968 122.445 379.815 123.336 378.492 123.45C376.745 123.594 375.177 122.384 373.442 122.327C372.738 122.333 372.043 122.489 371.404 122.786C370.765 123.083 370.197 123.513 369.739 124.049C368.827 125.124 368.15 126.379 367.751 127.732C367.065 129.785 366.691 131.929 366.642 134.093C366.615 135.312 366.502 136.833 365.375 137.287C365.401 137.611 365.401 137.937 365.375 138.261C366.515 137.825 366.629 136.282 366.655 135.059C366.704 132.895 367.078 130.75 367.764 128.697C368.163 127.345 368.84 126.09 369.752 125.014C370.21 124.479 370.778 124.048 371.417 123.751C372.056 123.453 372.751 123.295 373.456 123.288C375.203 123.35 376.775 124.56 378.505 124.411C379.815 124.302 380.977 123.411 382.292 123.232C383.456 123.122 384.62 123.45 385.555 124.153C386.478 124.854 387.287 125.695 387.953 126.644C390.333 129.79 392.268 133.469 392.382 137.414C392.88 137.772 393.592 137.3 393.836 136.741C394.081 136.182 394.09 135.526 394.395 134.993C394.753 134.377 395.444 134.045 395.981 133.582C397.344 132.407 397.684 130.428 397.632 128.632C397.632 128.575 397.632 128.523 397.632 128.466C397.545 130.03 397.13 131.616 395.968 132.617Z" fill="black"/>
<path d="M363.719 132.311C362.719 131.205 361.348 130.463 360.426 129.292C359.648 128.258 359.204 127.011 359.155 125.718C359.018 127.335 359.469 128.947 360.426 130.257C361.348 131.428 362.719 132.167 363.719 133.272C364.686 134.353 365.266 135.723 365.37 137.169C365.436 136.29 365.324 135.406 365.04 134.572C364.756 133.737 364.307 132.968 363.719 132.311Z" fill="black"/>
<path d="M398.479 119.116C398.221 120.186 397.763 121.204 397.553 122.283C397.427 123.013 397.382 123.755 397.418 124.494C397.432 124.076 397.477 123.66 397.553 123.249C397.763 122.17 398.221 121.152 398.479 120.081C398.627 119.491 398.676 118.879 398.623 118.273C398.595 118.557 398.547 118.838 398.479 119.116Z" fill="black"/>
</g>
<path opacity="0.1" d="M57.9753 366.518C81.481 366.518 100.536 363.457 100.536 359.681C100.536 355.904 81.481 352.843 57.9753 352.843C34.4697 352.843 15.4146 355.904 15.4146 359.681C15.4146 363.457 34.4697 366.518 57.9753 366.518Z" fill="#00C4DE"/>
<path d="M59.3466 228.69H56.6079V290.369H59.3466V228.69Z" fill="#535461"/>
<path d="M76.5604 290.185L76.3857 292.964L76.1455 296.896L76.045 298.53L75.8004 302.462L75.6956 304.096L75.4554 308.029L72.6905 352.625C72.5726 354.543 71.7274 356.345 70.3273 357.662C68.9272 358.979 67.0777 359.712 65.1559 359.711H50.7986C48.8715 359.712 47.0171 358.975 45.616 357.652C44.2149 356.328 43.3733 354.518 43.264 352.594L40.4991 307.998L40.2589 304.066L40.1584 302.432L39.9094 298.5L39.809 296.866L39.5687 292.933L39.394 290.155C39.3638 289.622 39.4422 289.089 39.6246 288.587C39.8069 288.086 40.0893 287.627 40.4546 287.238C40.8199 286.85 41.2604 286.539 41.7494 286.326C42.2384 286.113 42.7656 286.002 43.2989 286H72.6599C73.1956 286.003 73.725 286.115 74.2157 286.33C74.7063 286.545 75.1478 286.858 75.5131 287.25C75.8783 287.642 76.1597 288.105 76.3398 288.61C76.5199 289.114 76.595 289.65 76.5604 290.185Z" fill="#3F3D56"/>
<path d="M76.3858 292.96L76.1412 296.883H39.8091L39.5645 292.96H76.3858Z" fill="#9D9CB5"/>
<path d="M76.0409 298.517L75.8007 302.441H40.1543L39.9097 298.517H76.0409Z" fill="#9D9CB5"/>
<path d="M75.6955 304.079L75.4553 307.998H40.499L40.2544 304.079H75.6955Z" fill="#9D9CB5"/>
<path d="M35.4016 251.811C51.3532 263.354 57.9968 281.408 57.9968 281.408C57.9968 281.408 38.778 280.748 22.8221 269.205C6.86617 257.661 0.213867 239.621 0.213867 239.621C0.213867 239.621 19.4326 240.268 35.4016 251.811Z" fill="#00C4DE"/>
<path d="M0.213867 239.621C0.213867 239.621 20.1621 250.697 26.561 259.868C32.96 269.039 57.9793 281.416 57.9793 281.416" stroke="#535461" stroke-width="2" stroke-miterlimit="10"/>
<path d="M45.6796 228.558C54.363 234.837 57.9796 244.663 57.9796 244.663C57.9796 244.663 47.4967 244.305 38.8352 238.026C30.1736 231.748 26.5352 221.917 26.5352 221.917C26.5352 221.917 37.0006 222.276 45.6796 228.558Z" fill="#00C4DE"/>
<path d="M26.5352 221.917C26.5352 221.917 37.3937 227.947 40.8793 232.936C44.3649 237.926 57.9796 244.663 57.9796 244.663" stroke="#535461" stroke-width="2" stroke-miterlimit="10"/>
<path d="M70.5938 244.165C60.6219 255.127 58.5122 269.454 58.5122 269.454C58.5122 269.454 72.5725 266.002 82.5356 255.035C92.4988 244.069 94.6172 229.747 94.6172 229.747C94.6172 229.747 80.5657 233.203 70.5938 244.165Z" fill="#00C4DE"/>
<path d="M94.626 229.751C94.626 229.751 81.6358 240.989 78.3337 248.731C75.0316 256.473 58.5122 269.454 58.5122 269.454" stroke="#535461" stroke-width="2" stroke-miterlimit="10"/>
</g>
<defs>
<linearGradient id="paint0_linear_223_28" x1="203.339" y1="365.068" x2="203.339" y2="112.684" gradientUnits="userSpaceOnUse">
<stop stop-color="#808080" stop-opacity="0.25"/>
<stop offset="0.54" stop-color="#808080" stop-opacity="0.12"/>
<stop offset="1" stop-color="#808080" stop-opacity="0.1"/>
</linearGradient>
<linearGradient id="paint1_linear_223_28" x1="376.683" y1="376.117" x2="376.683" y2="107.267" gradientUnits="userSpaceOnUse">
<stop stop-color="#808080" stop-opacity="0.25"/>
<stop offset="0.54" stop-color="#808080" stop-opacity="0.12"/>
<stop offset="1" stop-color="#808080" stop-opacity="0.1"/>
</linearGradient>
<clipPath id="clip0_223_28">
<rect width="510" height="377" fill="white"/>
</clipPath>
</defs>
</svg>
