<svg width="411" height="296" viewBox="0 0 411 296" fill="none" xmlns="http://www.w3.org/2000/svg">
<g clip-path="url(#clip0_223_198)">
<path opacity="0.1" d="M238.798 52.2019C212.449 51.2867 187.334 42.7849 163.389 33.4852C139.443 24.1854 115.709 13.8797 89.9777 8.95184C73.4337 5.7788 54.5133 5.33253 41.1858 14.1974C28.3578 22.7256 24.2142 37.4487 21.9854 51.109C20.3091 61.3882 19.3365 72.2046 23.9191 81.8296C27.109 88.5084 32.77 94.1246 36.6865 100.524C50.3092 122.788 40.6787 150.245 25.9133 172.002C18.9884 182.213 10.9548 191.929 5.6117 202.787C0.26858 213.645 -2.2062 226.084 2.47092 237.157C7.10641 248.125 18.1483 256.377 30.1136 262.174C54.4149 273.94 83.0491 277.306 110.972 279.235C172.781 283.459 234.923 281.629 296.895 279.798C319.83 279.117 342.868 278.433 365.428 274.882C377.957 272.911 390.895 269.788 399.992 262.246C411.537 252.671 414.402 236.461 406.663 224.454C393.684 204.319 357.8 199.315 348.725 177.705C343.734 165.811 348.862 152.559 356.119 141.527C371.683 117.864 397.778 97.101 399.152 70.0489C400.098 51.4683 387.554 32.865 368.157 24.072C347.828 14.8479 319.637 16.0127 304.641 31.2576C289.198 46.964 262.059 53.0075 238.798 52.2019Z" fill="#00C4DE"/>
<path d="M91.6695 274.205C91.6695 274.205 70.8571 258.48 66.9254 238.477C65.331 230.076 61.0544 222.418 54.7369 216.651C51.7148 213.939 48.4506 211.508 44.9854 209.39" stroke="#535461" stroke-width="2" stroke-miterlimit="10"/>
<path d="M42.4385 196.789C44.2624 199.255 45.0874 209.704 45.0874 209.704C45.0874 209.704 35.3358 205.865 33.5081 203.403C32.6305 202.22 32.2592 200.736 32.476 199.279C32.6928 197.822 33.4799 196.51 34.6641 195.633C35.8484 194.756 37.3328 194.385 38.7908 194.602C40.2487 194.818 41.5609 195.605 42.4385 196.789Z" fill="#00C4DE"/>
<path d="M59.9282 204.988C60.1174 208.048 55.1338 217.268 55.1338 217.268C55.1338 217.268 49.0301 208.743 48.8371 205.684C48.7637 204.225 49.2683 202.796 50.2416 201.707C51.2149 200.618 52.5785 199.956 54.0369 199.864C55.4954 199.773 56.9311 200.259 58.0331 201.218C59.1352 202.177 59.8147 203.532 59.9244 204.988H59.9282Z" fill="#00C4DE"/>
<path d="M76.8811 228.557C75.5037 231.295 66.5392 236.741 66.5392 236.741C66.5392 236.741 65.5818 226.303 66.9592 223.565C67.6373 222.277 68.794 221.307 70.1805 220.863C71.5671 220.419 73.0725 220.537 74.3729 221.192C75.6733 221.846 76.6648 222.984 77.1338 224.362C77.6029 225.739 77.5121 227.246 76.8811 228.557Z" fill="#00C4DE"/>
<path d="M85.6942 249.267C84.7974 252.198 76.8848 259.077 76.8848 259.077C76.8848 259.077 74.1717 248.953 75.0685 246.018C75.4995 244.61 76.4727 243.43 77.7738 242.739C79.075 242.048 80.5975 241.902 82.0066 242.333C83.4157 242.763 84.5958 243.736 85.2873 245.036C85.9789 246.337 86.1252 247.859 85.6942 249.267Z" fill="#00C4DE"/>
<path d="M46.1129 224.68C49.1402 225.089 58.7101 220.77 58.7101 220.77C58.7101 220.77 50.6349 214.084 47.5925 213.675C46.1322 213.479 44.6539 213.871 43.4826 214.764C42.3113 215.657 41.5431 216.979 41.3469 218.438C41.1507 219.898 41.5426 221.375 42.4364 222.546C43.3302 223.717 44.6527 224.484 46.1129 224.68Z" fill="#00C4DE"/>
<path d="M56.7269 248.775C59.7542 248.257 67.5759 241.279 67.5759 241.279C67.5759 241.279 57.8659 237.316 54.8425 237.834C54.1186 237.953 53.4254 238.213 52.8028 238.601C52.1803 238.989 51.6408 239.496 51.2154 240.093C50.79 240.691 50.4872 241.366 50.3245 242.081C50.1617 242.796 50.1423 243.536 50.2672 244.258C50.3921 244.981 50.659 245.671 51.0523 246.29C51.4457 246.909 51.9578 247.444 52.5591 247.864C53.1604 248.284 53.8389 248.58 54.5556 248.737C55.2722 248.893 56.0128 248.906 56.7345 248.775H56.7269Z" fill="#00C4DE"/>
<path d="M70.2551 270.782C73.324 270.782 82.2166 265.226 82.2166 265.226C82.2166 265.226 73.3202 259.678 70.2513 259.678C68.778 259.678 67.3651 260.263 66.3233 261.304C65.2815 262.346 64.6963 263.758 64.6963 265.23C64.6963 266.703 65.2815 268.115 66.3233 269.156C67.3651 270.197 68.778 270.782 70.2513 270.782H70.2551Z" fill="#00C4DE"/>
<path d="M293.853 138.195C293.853 138.195 306.681 115.485 326.017 108.942C334.137 106.247 341.163 100.994 346.043 93.9695C348.331 90.6114 350.306 87.0503 351.942 83.3309" stroke="#535461" stroke-width="2" stroke-miterlimit="10"/>
<path d="M364.081 79.1708C361.879 81.3038 351.628 83.5125 351.628 83.5125C351.628 83.5125 354.144 73.3391 356.347 71.2023C357.41 70.2076 358.821 69.6699 360.277 69.7049C361.733 69.7398 363.116 70.3448 364.13 71.3894C365.144 72.434 365.707 73.8348 365.698 75.2901C365.689 76.7455 365.108 78.1391 364.081 79.1708Z" fill="#00C4DE"/>
<path d="M358.284 97.5624C355.257 98.1599 345.467 94.4461 345.467 94.4461C345.467 94.4461 353.111 87.2604 356.119 86.6742C356.842 86.514 357.589 86.4996 358.317 86.6319C359.045 86.7642 359.739 87.0406 360.359 87.4447C360.978 87.8488 361.511 88.3725 361.925 88.9852C362.34 89.5978 362.627 90.287 362.772 91.0123C362.916 91.7376 362.913 92.4844 362.765 93.2088C362.616 93.9333 362.324 94.6207 361.906 95.2309C361.488 95.841 360.953 96.3616 360.331 96.762C359.709 97.1623 359.013 97.4345 358.284 97.5624Z" fill="#00C4DE"/>
<path d="M337.184 117.485C334.285 116.483 327.697 108.329 327.697 108.329C327.697 108.329 337.914 105.992 340.82 106.994C341.519 107.226 342.164 107.594 342.719 108.076C343.274 108.559 343.727 109.147 344.053 109.807C344.378 110.466 344.57 111.183 344.616 111.917C344.662 112.651 344.561 113.387 344.32 114.081C344.08 114.776 343.703 115.416 343.213 115.964C342.722 116.512 342.128 116.958 341.464 117.274C340.8 117.591 340.08 117.773 339.345 117.809C338.611 117.845 337.876 117.735 337.184 117.485Z" fill="#00C4DE"/>
<path d="M317.794 128.967C314.767 128.468 306.911 121.528 306.911 121.528C306.911 121.528 316.595 117.497 319.618 117.996C321.073 118.235 322.374 119.042 323.234 120.24C324.093 121.438 324.442 122.927 324.202 124.382C323.963 125.836 323.155 127.136 321.957 127.995C320.759 128.855 319.268 129.203 317.813 128.964L317.794 128.967Z" fill="#00C4DE"/>
<path d="M336.919 86.4927C336.915 89.5598 342.482 98.4587 342.482 98.4587C342.482 98.4587 348.04 89.5712 348.04 86.5078C348.06 85.7668 347.93 85.0294 347.66 84.3391C347.39 83.6488 346.984 83.0197 346.466 82.4887C345.949 81.9578 345.33 81.5358 344.646 81.2476C343.963 80.9595 343.229 80.811 342.487 80.811C341.746 80.811 341.011 80.9595 340.328 81.2476C339.645 81.5358 339.026 81.9578 338.508 82.4887C337.991 83.0197 337.585 83.6488 337.314 84.3391C337.044 85.0294 336.915 85.7668 336.934 86.5078L336.919 86.4927Z" fill="#00C4DE"/>
<path d="M314.43 100.206C315.346 103.133 323.308 109.96 323.308 109.96C323.308 109.96 325.957 99.8164 325.033 96.8892C324.554 95.533 323.568 94.4154 322.281 93.7718C320.994 93.1281 319.508 93.0086 318.134 93.4385C316.761 93.8684 315.608 94.814 314.919 96.0763C314.229 97.3386 314.057 98.8191 314.438 100.206H314.43Z" fill="#00C4DE"/>
<path d="M294.424 116.533C294.832 119.558 301.523 127.64 301.523 127.64C301.523 127.64 305.84 118.091 305.432 115.054C305.351 114.318 305.123 113.606 304.763 112.959C304.402 112.312 303.916 111.744 303.332 111.288C302.749 110.832 302.08 110.497 301.365 110.304C300.65 110.11 299.904 110.06 299.17 110.159C298.436 110.258 297.729 110.502 297.091 110.878C296.453 111.253 295.896 111.753 295.454 112.347C295.012 112.941 294.693 113.617 294.516 114.336C294.339 115.054 294.308 115.801 294.424 116.533Z" fill="#00C4DE"/>
<path opacity="0.25" d="M364.081 79.1708C361.879 81.3038 351.628 83.5125 351.628 83.5125C351.628 83.5125 354.144 73.3391 356.347 71.2023C357.41 70.2076 358.821 69.6699 360.277 69.7049C361.733 69.7398 363.116 70.3448 364.13 71.3894C365.144 72.434 365.707 73.8348 365.698 75.2901C365.689 76.7455 365.108 78.1391 364.081 79.1708Z" fill="black"/>
<path opacity="0.25" d="M358.284 97.5624C355.257 98.1599 345.467 94.4461 345.467 94.4461C345.467 94.4461 353.111 87.2604 356.119 86.6742C356.842 86.514 357.589 86.4996 358.317 86.6319C359.045 86.7642 359.739 87.0406 360.359 87.4447C360.978 87.8488 361.511 88.3725 361.925 88.9852C362.34 89.5978 362.627 90.287 362.772 91.0123C362.916 91.7376 362.913 92.4844 362.765 93.2088C362.616 93.9333 362.324 94.6207 361.906 95.2309C361.488 95.841 360.953 96.3616 360.331 96.762C359.709 97.1623 359.013 97.4345 358.284 97.5624Z" fill="black"/>
<path opacity="0.25" d="M337.184 117.485C334.285 116.483 327.697 108.329 327.697 108.329C327.697 108.329 337.914 105.992 340.82 106.994C341.519 107.226 342.164 107.594 342.719 108.076C343.274 108.559 343.727 109.147 344.053 109.807C344.378 110.466 344.57 111.183 344.616 111.917C344.662 112.651 344.561 113.387 344.32 114.081C344.08 114.776 343.703 115.416 343.213 115.964C342.722 116.512 342.128 116.958 341.464 117.274C340.8 117.591 340.08 117.773 339.345 117.809C338.611 117.845 337.876 117.735 337.184 117.485Z" fill="black"/>
<path opacity="0.25" d="M317.794 128.967C314.767 128.468 306.911 121.528 306.911 121.528C306.911 121.528 316.595 117.497 319.618 117.996C321.073 118.235 322.374 119.042 323.234 120.24C324.093 121.438 324.442 122.927 324.202 124.382C323.963 125.836 323.155 127.136 321.957 127.995C320.759 128.855 319.268 129.203 317.813 128.964L317.794 128.967Z" fill="black"/>
<path opacity="0.25" d="M336.919 86.4927C336.915 89.5598 342.482 98.4587 342.482 98.4587C342.482 98.4587 348.04 89.5712 348.04 86.5078C348.06 85.7668 347.93 85.0294 347.66 84.3391C347.39 83.6488 346.984 83.0197 346.466 82.4887C345.949 81.9578 345.33 81.5358 344.646 81.2476C343.963 80.9595 343.229 80.811 342.487 80.811C341.746 80.811 341.011 80.9595 340.328 81.2476C339.645 81.5358 339.026 81.9578 338.508 82.4887C337.991 83.0197 337.585 83.6488 337.314 84.3391C337.044 85.0294 336.915 85.7668 336.934 86.5078L336.919 86.4927Z" fill="black"/>
<path opacity="0.25" d="M314.43 100.206C315.346 103.133 323.308 109.96 323.308 109.96C323.308 109.96 325.957 99.8164 325.033 96.8892C324.554 95.533 323.568 94.4154 322.281 93.7718C320.994 93.1281 319.508 93.0086 318.134 93.4385C316.761 93.8684 315.608 94.814 314.919 96.0763C314.229 97.3386 314.057 98.8191 314.438 100.206H314.43Z" fill="black"/>
<path opacity="0.25" d="M294.424 116.533C294.832 119.558 301.523 127.64 301.523 127.64C301.523 127.64 305.84 118.091 305.432 115.054C305.351 114.318 305.123 113.606 304.763 112.959C304.402 112.312 303.916 111.744 303.332 111.288C302.749 110.832 302.08 110.497 301.365 110.304C300.65 110.11 299.904 110.06 299.17 110.159C298.436 110.258 297.729 110.502 297.091 110.878C296.453 111.253 295.896 111.753 295.454 112.347C295.012 112.941 294.693 113.617 294.516 114.336C294.339 115.054 294.308 115.801 294.424 116.533Z" fill="black"/>
<path d="M294.59 137.745C294.59 137.745 297.111 111.786 312.118 97.9821C318.448 92.2291 322.742 84.5806 324.356 76.1831C325.09 72.191 325.456 68.1399 325.449 64.0809" stroke="#535461" stroke-width="2" stroke-miterlimit="10"/>
<path d="M334.857 55.322C333.722 58.166 325.23 64.3381 325.23 64.3381C325.23 64.3381 323.406 54.0173 324.553 51.1733C325.105 49.8076 326.177 48.7171 327.533 48.1415C328.89 47.566 330.42 47.5526 331.786 48.1042C333.152 48.6559 334.244 49.7274 334.82 51.0832C335.395 52.4389 335.409 53.9677 334.857 55.3334V55.322Z" fill="#00C4DE"/>
<path d="M337.017 74.5039C334.509 76.2663 324.038 76.845 324.038 76.845C324.038 76.845 328.117 67.1859 330.626 65.4235C331.221 64.9785 331.899 64.6573 332.621 64.4789C333.342 64.3006 334.092 64.2688 334.826 64.3853C335.56 64.5018 336.263 64.7643 336.894 65.1573C337.525 65.5503 338.07 66.0658 338.498 66.6732C338.925 67.2806 339.227 67.9676 339.384 68.6935C339.541 69.4195 339.551 70.1696 339.413 70.8994C339.275 71.6292 338.992 72.324 338.58 72.9425C338.169 73.561 337.637 74.0906 337.017 74.5002V74.5039Z" fill="#00C4DE"/>
<path d="M325.794 101.272C322.736 101.53 313.405 96.7341 313.405 96.7341C313.405 96.7341 321.805 90.4561 324.863 90.199C326.331 90.0756 327.788 90.5402 328.914 91.4906C330.039 92.441 330.741 93.7993 330.865 95.2668C330.988 96.7342 330.523 98.1905 329.572 99.3154C328.621 100.44 327.262 101.142 325.794 101.265V101.272Z" fill="#00C4DE"/>
<path d="M312.735 119.611C309.764 120.367 299.759 117.24 299.759 117.24C299.759 117.24 306.976 109.634 309.946 108.863C311.372 108.493 312.887 108.705 314.157 109.451C315.427 110.198 316.348 111.418 316.718 112.843C317.087 114.268 316.876 115.782 316.129 117.051C315.382 118.321 314.161 119.241 312.735 119.611Z" fill="#00C4DE"/>
<path d="M313 73.0366C314.241 75.839 322.922 81.735 322.922 81.735C322.922 81.735 324.398 71.3574 323.156 68.555C322.538 67.2439 321.431 66.2265 320.072 65.7202C318.713 65.214 317.21 65.259 315.883 65.8457C314.557 66.4324 313.513 67.5142 312.974 68.86C312.435 70.2058 312.445 71.7088 313 73.0479V73.0366Z" fill="#00C4DE"/>
<path d="M298 94.6768C300.024 96.98 310.067 99.998 310.067 99.998C310.067 99.998 308.372 89.6544 306.348 87.3512C305.87 86.7917 305.285 86.3326 304.628 86.0008C303.972 85.6689 303.255 85.4708 302.521 85.418C301.787 85.3652 301.05 85.4587 300.352 85.6932C299.654 85.9276 299.01 86.2983 298.457 86.7837C297.904 87.2691 297.453 87.8594 297.13 88.5205C296.807 89.1816 296.619 89.9002 296.577 90.6346C296.534 91.369 296.638 92.1046 296.882 92.7985C297.127 93.4924 297.507 94.1309 298 94.6768Z" fill="#00C4DE"/>
<path d="M286.311 117.716C287.915 120.326 297.303 124.996 297.303 124.996C297.303 124.996 297.383 114.517 295.79 111.903C294.997 110.697 293.765 109.846 292.355 109.532C290.945 109.218 289.468 109.466 288.237 110.222C287.007 110.978 286.119 112.183 285.763 113.582C285.407 114.982 285.61 116.464 286.33 117.716H286.311Z" fill="#00C4DE"/>
<path d="M275.292 36.0834C275.92 33.7802 276.676 31.4657 277.206 29.1322C276.571 31.4657 275.81 33.7878 275.292 36.0834Z" fill="url(#paint0_linear_223_198)"/>
<path d="M272.476 58.2682C272.423 58.1774 272.385 58.0866 272.344 58.0034C272.344 57.9656 272.306 57.9354 272.291 57.8975C272.208 57.9364 272.124 57.9705 272.037 57.9997C271.871 58.0639 271.701 58.1245 271.526 58.1736C271.352 58.2228 271.281 58.2493 271.148 58.2795C271.038 58.3173 270.926 58.3464 270.811 58.3665L270.842 58.4346C270.982 58.4043 271.118 58.3778 271.258 58.34L271.296 58.809C271.455 58.809 271.602 58.7863 271.746 58.7863C271.814 58.7826 271.882 58.7826 271.95 58.7863C272.245 58.7863 272.503 58.7863 272.707 58.7863C272.628 58.6161 272.544 58.4384 272.476 58.2682ZM349.293 180.474C347.515 178.08 343.965 152.385 343.965 152.385C343.965 152.385 336.983 134.115 338.887 126.823C340.79 119.532 333.688 100.875 333.688 100.875C333.688 100.875 328.995 98.8369 328.742 95.8114C328.742 95.8114 309.583 89.7603 308.686 85.222C307.96 81.5005 296.078 78.8305 291.809 77.9871C290.507 72.7378 289.198 67.8402 288.233 65.1664C287.972 64.3344 287.726 63.6158 287.499 63.0485C285.868 58.8884 280.828 58.5102 277.172 58.843C277.014 58.134 276.72 57.4623 276.306 56.8651C276.245 56.6598 276.126 56.4769 275.961 56.3394C275.883 56.2726 275.799 56.2119 275.712 56.1579C275.646 56.0353 275.558 55.9252 275.454 55.8326C275.351 55.7391 275.236 55.6579 275.114 55.5906C275.026 55.543 274.935 55.5013 274.841 55.4658C274.622 55.3823 274.395 55.3202 274.164 55.2805C273.895 55.2251 273.621 55.1897 273.347 55.1746C274.015 54.8826 274.61 54.4475 275.091 53.9C275.418 53.5157 275.662 53.0675 275.806 52.5839C275.926 52.1818 275.98 51.7628 275.965 51.3435C275.867 51.5163 275.753 51.6796 275.625 51.8313C275.784 50.1559 274.898 48.4541 274.391 46.7862C273.777 44.615 273.663 42.3327 274.058 40.1111C274.565 36.7604 275.821 33.3718 276.673 29.9605C276.675 29.9416 276.675 29.9226 276.673 29.9037C277.119 28.2096 277.396 26.4752 277.498 24.7263C277.645 21.1977 276.741 17.6768 275.288 14.4621C273.997 11.6143 272.094 8.81192 269.18 7.65466C267.016 6.78103 264.59 6.92096 262.259 6.77725C257.03 6.452 252.042 4.61399 247.07 2.94238C242.098 1.27076 236.982 -0.24957 231.748 0.0416379C226.515 0.332846 221.13 2.85539 218.742 7.48447C217.986 8.92916 217.55 10.5365 216.646 11.8942C214.951 14.4546 211.916 15.7366 209.384 17.5028C206.853 19.269 204.624 21.7764 203.708 24.7679C203.208 26.3796 203.138 28.0938 203.504 29.7411C203.586 30.1131 203.692 30.4794 203.822 30.8379C204.181 31.8371 204.741 32.7523 205.468 33.5268C206.016 34.0993 206.646 34.5874 207.337 34.9753C208.205 35.4562 209.135 35.8175 210.1 36.0494C210.066 36.1628 210.031 36.2838 209.994 36.4011C209.933 36.594 209.88 36.7793 209.823 36.9873C209.698 37.4525 209.581 37.9252 209.483 38.4017C209.479 38.4356 209.479 38.4699 209.483 38.5038C209.018 40.655 208.785 42.8496 208.786 45.0503C208.786 46.0912 208.839 47.1313 208.945 48.1666C210.459 63.5137 223.136 75.6197 238.798 76.4063C239.335 76.4328 239.876 76.4479 240.425 76.4479C240.675 76.4479 240.921 76.4479 241.182 76.4479C241.428 76.7731 241.67 77.1059 241.901 77.4312C242.132 77.7564 242.344 78.0892 242.544 78.4145L241.996 77.8472L241.447 77.3442C241.298 77.5483 241.132 77.7393 240.951 77.9153C240.593 77.7895 240.228 77.6859 239.858 77.6052C238.287 77.2572 235.896 77.1286 232.747 78.0779C229.852 78.944 226.314 80.7253 222.175 84.1101L202.002 96.2122L191.088 102.846L187.157 112.452C187.157 112.452 184.201 123.866 180.913 136.944C180.784 136.981 180.659 137.019 180.535 137.065C180.268 137.034 180 137.019 179.732 137.019C177.824 137.015 175.989 137.749 174.612 139.069C173.234 140.388 172.422 142.19 172.346 144.095C165.807 152.037 165.436 159.979 166.972 163.625C167.112 163.967 167.287 164.292 167.495 164.597C168.501 166.049 170.382 169.793 172.289 173.783C172.24 174.112 172.21 174.388 172.194 174.596C172.191 174.664 172.191 174.733 172.194 174.801C172.194 174.801 173.33 191.937 169.546 196.849C168.717 197.92 168.842 199.326 169.546 200.885C172.081 206.489 182.105 213.974 182.105 213.974C182.105 213.974 194.127 213.91 200.825 213.18C200.806 213.853 200.791 214.522 200.776 215.176C200.624 221.787 200.624 227.328 200.624 227.328L200.374 234.26C200.374 234.26 198.104 248.87 196.969 252.897C196.254 255.424 197.079 278.815 197.798 296.011H316.247C317.639 285.838 315.675 254.928 315.675 254.928C315.675 254.928 313.81 246.937 313.742 239.971C313.738 239.963 313.736 239.955 313.736 239.946C313.736 239.938 313.738 239.929 313.742 239.922C313.742 239.313 313.742 238.719 313.764 238.137L314.623 238.106L316.167 238.053H316.307C316.307 238.053 316.345 237.91 316.432 237.675C316.636 237.091 316.915 236.536 317.261 236.022C317.919 235.051 318.949 234.097 320.496 234.033C321.351 233.999 322.676 233.307 324.171 232.286C324.181 232.288 324.191 232.288 324.201 232.286C328.223 229.567 333.54 224.548 334.83 223.724C336.605 222.589 345.104 215.025 345.104 215.025C345.104 215.025 346.372 213.422 347.723 211.489L347.772 211.421C349.452 209.001 351.238 206.107 350.799 205.196C350.042 203.562 351.306 199.655 351.306 199.655C355.253 192.436 351.072 182.868 349.293 180.474ZM276.12 64.1491C276.157 64.262 276.18 64.3788 276.188 64.497C276.094 64.3722 275.999 64.2398 275.905 64.1188L275.814 63.9978L275.75 63.907L275.893 63.7104C275.893 63.7104 275.893 63.7104 275.893 63.7368C275.993 63.8595 276.07 63.9991 276.12 64.1491ZM274.849 60.7983C274.436 60.8815 274.111 60.9571 273.899 61.0139C273.63 60.5373 273.373 60.0608 273.142 59.5767C273.749 59.9285 274.32 60.3375 274.849 60.7983ZM274.138 61.3958C274.136 61.3883 274.136 61.3807 274.138 61.3731L274.168 61.3958C274.323 61.4979 274.474 61.5963 274.614 61.6984C274.739 61.7891 274.853 61.8761 274.966 61.9669C274.891 62.0993 274.807 62.2354 274.724 62.3451C274.592 62.1371 274.467 61.9366 274.346 61.7286C274.27 61.6454 274.202 61.532 274.138 61.3958ZM271.867 56.7289C272.598 56.6568 273.335 56.6568 274.066 56.7289C274.168 56.7289 274.259 56.7478 274.349 56.763C274.555 56.7947 274.756 56.8466 274.951 56.918C275.398 57.5433 275.674 58.2749 275.75 59.0397L275.545 59.0699L275.345 59.1078C274.966 59.1721 274.588 59.2363 274.293 59.2969L273.914 59.3763C273.411 59.486 273.12 59.5692 273.108 59.5729C273.059 59.4708 273.01 59.3763 272.957 59.2779C272.874 59.1153 272.787 58.9489 272.711 58.7863C272.635 58.6237 272.537 58.4384 272.457 58.2682C272.404 58.1774 272.367 58.0866 272.325 58.0034C272.325 57.9656 272.287 57.9354 272.272 57.8975C272.25 57.8574 272.231 57.8157 272.215 57.7727C271.984 57.3038 271.772 56.8348 271.568 56.3734C271.545 56.328 271.527 56.2789 271.508 56.2335L271.795 56.2146V56.3129L271.867 56.7289ZM181.583 291.337C181.552 285.706 181.144 279.613 180.009 273.895C179.524 271.463 179.025 269.031 178.518 266.641C178.389 266.043 178.264 265.453 178.139 264.863L176.974 265.018H176.868C173.689 250.038 170.367 236.839 170.367 236.839C170.367 236.839 163.767 211.656 164.532 209.647C164.63 209.386 164.505 208.683 164.225 207.65C162.628 201.925 155.961 186.146 153.63 180.753C153.63 180.731 153.611 180.704 153.603 180.685C153.225 179.781 152.952 179.173 152.869 178.995L153.418 170.947L153.448 170.463L153.52 169.434L153.49 169.408L153.52 168.931C153.52 168.931 147.761 164.211 138.005 160.804C137.627 160.668 137.226 160.535 136.828 160.407C137.317 157.15 137.964 153.474 138.808 149.893C138.887 149.534 138.974 149.186 139.065 148.834C139.144 148.482 139.235 148.142 139.326 147.798C139.47 147.238 139.625 146.686 139.784 146.141C140.31 145.975 140.828 145.79 141.339 145.593L141.536 145.517C147.829 143.07 153.022 138.426 156.153 132.446C159.283 126.466 160.14 119.555 158.564 112.993C157.666 109.271 156.006 105.775 153.69 102.725C153.516 102.49 153.331 102.256 153.145 102.025C152.96 101.794 152.737 101.537 152.529 101.303C153.622 98.818 154.913 96.4543 155.019 94.0376C155.037 93.7316 155.037 93.4247 155.019 93.1186V93.0808C154.879 91.5264 154.19 89.9532 152.585 88.3005C150.243 85.8762 146.909 84.6471 143.575 84.0571C140.242 83.4672 136.844 83.452 133.491 83.0549C127.932 82.3893 122.517 80.6761 116.958 80.1504C110.111 79.5167 103.218 80.6904 96.967 83.5541C92.831 85.4451 88.642 88.7505 88.3923 93.285C88.1879 97.0329 90.799 100.626 90.1405 104.328C89.4859 107.966 85.7775 110.829 86.1029 114.509C86.2278 115.946 86.9657 117.232 87.889 118.378C88.2069 118.756 88.5436 119.134 88.8918 119.513C90.2389 120.938 91.7223 122.308 92.4753 124.104C92.5056 124.18 92.5358 124.255 92.5623 124.331C93.2018 126.105 92.9142 128.347 91.3325 129.365C91.3413 129.371 91.3478 129.381 91.3514 129.391C91.3741 129.421 91.3968 129.444 91.4158 129.474C91.4181 129.468 91.4181 129.461 91.4158 129.455C91.9766 130.12 92.7326 130.591 93.5765 130.802L93.8981 130.9C93.637 131.184 93.391 131.479 93.1413 131.789L92.9786 132.004C92.5616 132.565 92.1823 133.152 91.8434 133.763C91.6504 134.103 91.4649 134.444 91.3098 134.784C90.7911 135.822 90.4156 136.925 90.1935 138.063C89.7886 140.567 90.36 143.176 89.747 145.627C88.9902 148.652 86.5948 150.975 85.2439 153.785C82.6859 159.079 84.1352 165.293 84.6498 171.14C85.3499 179.082 84.2147 187.058 83.0832 194.947C82.4828 199.142 81.8824 203.342 81.282 207.545C79.7684 218.094 78.2547 228.643 76.7411 239.192C76.1886 243.057 75.534 247.134 72.957 250.118H72.9835C72.9835 250.118 72.9835 250.14 72.957 250.148C73.7306 250.486 74.5533 250.698 75.394 250.776C78.758 251.112 82.3226 249.486 85.3499 247.709C87.7473 246.324 90.0177 244.731 92.1347 242.947C91.8244 244.082 91.4914 245.318 91.1357 246.65C91.1369 246.662 91.1369 246.675 91.1357 246.688C86.8635 262.95 79.9916 292.763 79.9916 292.763C79.9916 292.763 79.3673 294.06 78.5575 295.992H185.268C184.02 294.48 182.858 293.031 181.95 291.863L181.583 291.337ZM102.571 140.968C102.598 140.922 102.617 140.881 102.643 140.839C102.643 140.96 102.643 141.077 102.643 141.191C102.643 141.304 102.643 141.406 102.643 141.512C102.643 141.618 102.643 141.607 102.643 141.66C102.643 141.713 102.643 141.66 102.643 141.66C102.643 141.815 102.609 141.97 102.583 142.125C102.583 142.125 102.583 142.144 102.583 142.159L102.961 142.299L103.4 142.48C105.993 143.504 108.619 144.431 111.278 145.26C111.551 145.347 111.827 145.43 112.103 145.51L112.16 145.979C112.228 146.459 112.293 146.947 112.353 147.435C112.353 147.435 112.353 147.457 112.353 147.472C112.523 148.823 112.69 150.169 112.837 151.485C112.837 151.485 105.89 148.838 105.977 152.858C105.973 152.93 105.973 153.002 105.977 153.074C105.969 153.169 105.969 153.265 105.977 153.361C106.041 156.492 107.021 158.349 107.218 159.302C107.206 159.342 107.186 159.378 107.158 159.408C106.99 159.773 106.932 160.179 106.991 160.577C106.984 161.253 107.038 161.929 107.15 162.596C106.946 162.721 106.745 162.846 106.545 162.975C106.393 163.069 106.249 163.175 106.102 163.281C105.173 160.063 103.959 156.934 102.473 153.932C101.432 151.791 100.263 149.56 100.274 147.212C100.274 147.06 100.274 146.905 100.293 146.75C100.335 146.069 100.465 145.397 100.679 144.749C100.766 144.504 100.861 144.262 100.967 144.023C101.214 143.457 101.491 142.904 101.795 142.367C101.992 142.011 102.2 141.66 102.401 141.304C102.465 141.198 102.526 141.089 102.586 140.983L102.571 140.968ZM272.476 58.2682C272.423 58.1774 272.385 58.0866 272.344 58.0034C272.344 57.9656 272.306 57.9354 272.291 57.8975C272.208 57.9364 272.124 57.9705 272.037 57.9997C271.871 58.0639 271.701 58.1245 271.526 58.1736C271.352 58.2228 271.281 58.2493 271.148 58.2795L270.811 58.3665L270.842 58.4346C270.982 58.4043 271.118 58.3778 271.258 58.34L271.296 58.809C271.455 58.809 271.602 58.7863 271.746 58.7863H271.95C272.245 58.7863 272.503 58.7863 272.707 58.7863C272.628 58.6161 272.544 58.4384 272.476 58.2682Z" fill="url(#paint1_linear_223_198)"/>
<path d="M189.794 113.817L187.524 114.819C187.524 114.819 172.724 172.282 172.724 176.926C172.724 181.57 204.105 207.412 204.105 207.412L209.002 174.381C209.002 174.381 201.971 98.6327 189.794 113.817Z" fill="#E8F5FF"/>
<path d="M258.63 95.539L245.519 88.7013C244.784 85.5723 243.481 82.6047 241.674 79.9461C239.755 77.1777 237.205 74.4585 234.026 73.0403C225.993 69.4399 268.007 50.5416 268.007 50.5416C268.669 52.8118 269.448 55.0462 270.342 57.2356C272.507 62.5757 276.098 69.4815 280.726 71.4481C288.593 74.7951 258.63 95.539 258.63 95.539Z" fill="#FFC1C7"/>
<path opacity="0.1" d="M270.342 57.2356C268.547 63.5457 264.814 69.1328 259.67 73.2078C254.526 77.2828 248.231 79.6399 241.674 79.9461C239.755 77.1777 237.205 74.4585 234.026 73.0403C225.993 69.4399 268.007 50.5416 268.007 50.5416C268.669 52.8118 269.448 55.0462 270.342 57.2356Z" fill="black"/>
<path d="M271.522 47.6939C271.524 53.8825 269.689 59.9326 266.25 65.0789C262.811 70.2253 257.922 74.2367 252.201 76.6058C246.481 78.975 240.186 79.5954 234.113 78.3887C228.039 77.182 222.46 74.2024 218.082 69.8266C213.703 65.4509 210.721 59.8755 209.513 53.8058C208.305 47.7361 208.925 41.4447 211.295 35.7272C213.664 30.0097 217.677 25.123 222.826 21.6852C227.975 18.2474 234.028 16.4128 240.221 16.4135C244.336 16.3945 248.415 17.1906 252.221 18.7558C256.027 20.321 259.485 22.6243 262.395 25.5327C265.306 28.4411 267.611 31.8969 269.177 35.7006C270.744 39.5044 271.541 43.5806 271.522 47.6939Z" fill="#FFC1C7"/>
<path d="M276.041 91.5226L267.504 111.431L259.974 124.645H235.869L228.838 106.578L231.688 87.8428H250.097L261.983 87.1734L265.998 85.8346L268.586 87.302L276.041 91.5226Z" fill="#575A89"/>
<path opacity="0.1" d="M273.101 64.9849C273.101 64.9849 278.425 66.1195 273.657 70.0262C268.889 73.9329 252.439 86.3565 252.439 86.3565C252.439 86.3565 258.218 91.5 257.022 97.5246L276.166 86.8595L279.571 69.7955C279.571 69.7955 279.953 64.6672 273.101 64.9849Z" fill="black"/>
<path opacity="0.1" d="M256.205 86.3564L244.027 88.3646C244.027 88.3646 246.54 97.6493 245.284 100.285C245.246 100.367 245.214 100.452 245.189 100.539L240.221 113.961L243.944 124.501L256.833 106.934L252.439 100.285C252.439 100.285 257.083 94.1359 259.845 92.0029C262.607 89.8699 256.205 86.3564 256.205 86.3564Z" fill="black"/>
<path d="M256.205 85.8384L244.027 87.8428C244.027 87.8428 246.54 97.1274 245.284 99.7634C245.246 99.8454 245.214 99.9301 245.189 100.017L240.221 113.439L243.944 123.979L256.833 106.401L252.439 99.7521C252.439 99.7521 257.083 93.6027 259.845 91.4697C262.607 89.3367 256.205 85.8384 256.205 85.8384Z" fill="#DCE6F2"/>
<path d="M273.611 63.9827C273.611 63.9827 278.936 65.1173 274.164 69.024C269.392 72.9307 252.439 86.3566 252.439 86.3566C252.439 86.3566 258.717 90.4978 257.525 96.5186L276.669 85.8573L280.075 68.7933C280.075 68.7933 280.453 63.665 273.611 63.9827Z" fill="#575A89"/>
<path opacity="0.1" d="M242.51 81.1299C242.51 81.1299 243.672 83.3007 248.799 87.215C248.799 87.215 240.263 91.7533 243.528 98.1334L230.469 94.7297L228.46 88.4555L242.51 81.1299Z" fill="black"/>
<path d="M242.007 80.6306C242.007 80.6306 243.169 82.8015 248.296 86.7157C248.296 86.7157 239.759 91.2314 243.025 97.6304L229.97 94.2266L227.96 87.9562L242.007 80.6306Z" fill="#575A89"/>
<path opacity="0.1" d="M276.041 91.5226L267.504 111.431L259.989 124.645H235.869L228.838 106.578L231.684 87.8428H236.804C236.721 92.2147 238.318 97.3506 238.215 99.2605C238.041 102.399 242.9 119.335 242.9 119.335C242.9 119.335 253.068 102.899 257.083 101.435C259.607 100.516 264.954 92.869 268.583 87.302L276.041 91.5226Z" fill="black"/>
<path d="M309.67 196.286L308.803 197.375C308.803 197.375 315.081 228.867 313.344 236.019C313.049 237.308 312.881 238.622 312.841 239.944V240.001C312.535 247.277 314.733 256.721 314.733 256.721C314.733 256.721 316.489 284.556 315.49 296.004H197.949C197.26 279.076 196.519 257.144 197.192 254.713C198.327 250.7 200.598 236.143 200.598 236.143L200.848 229.245C200.848 229.245 200.848 222.578 201.052 215.15C201.139 211.811 201.268 208.305 201.453 205.196C201.691 201.285 202.024 197.991 202.482 196.373C202.764 195.146 202.927 193.894 202.967 192.636C202.967 192.519 202.967 192.398 202.989 192.277C202.989 191.899 203.027 191.49 203.042 191.07C203.042 190.953 203.042 190.836 203.042 190.692C203.114 188.257 203.088 185.367 203.008 182.372C203.008 182.209 203.008 182.043 203.008 181.877C202.944 179.63 202.849 177.338 202.743 175.16C202.414 168.352 201.987 162.596 201.987 162.596L187.55 114.793L191.44 105.217L202.236 98.6061L222.197 86.5607C231.934 78.5619 238.344 79.5225 240.788 80.3999C241.026 80.4809 241.258 80.5756 241.485 80.6836C241.56 80.7214 241.621 80.7517 241.678 80.7857C241.755 80.8225 241.83 80.8655 241.901 80.9143C241.232 81.2361 240.65 81.7149 240.206 82.3098C239.705 82.9868 239.348 83.759 239.158 84.579C239.03 85.0872 238.94 85.6042 238.889 86.1258C238.84 86.6742 238.821 87.2414 238.821 87.8125C238.848 89.0649 238.955 90.3142 239.142 91.5528C239.142 91.5755 239.142 91.6058 239.142 91.636C239.267 92.521 239.422 93.3871 239.574 94.2002C239.572 94.214 239.572 94.228 239.574 94.2418C239.748 95.1911 239.922 96.0685 240.039 96.8248C240.062 96.961 240.081 97.0858 240.1 97.203C240.183 97.7029 240.222 98.2091 240.217 98.7158C240.26 99.9394 240.424 101.156 240.709 102.346C240.807 102.846 240.921 103.379 241.046 103.935C241.216 104.691 241.401 105.516 241.602 106.355C241.712 106.817 241.829 107.293 241.95 107.766C241.996 107.955 242.045 108.144 242.09 108.337L242.166 108.636C242.972 111.839 243.846 115.027 244.383 116.956C244.701 118.091 244.902 118.79 244.902 118.79C244.902 118.79 250.601 109.581 255.149 104.34C255.217 104.264 255.278 104.192 255.342 104.124C255.792 103.606 256.235 103.133 256.659 102.717C257.586 101.794 258.418 101.136 259.088 100.894C259.231 100.842 259.369 100.777 259.501 100.701C261.363 99.6462 264.367 95.8151 267.179 91.8024C267.455 91.4242 267.724 91.012 267.996 90.6225C268.62 89.7224 269.226 88.8185 269.797 87.9524C270.236 87.2906 270.656 86.6477 271.054 86.035C272.946 83.0927 274.278 80.8992 274.278 80.8992L276.904 80.7819L277.362 80.7592H277.668L289.592 80.2071C289.592 80.2071 290.106 80.294 290.954 80.4642C290.999 80.4642 291.045 80.4642 291.094 80.4945C295.325 81.3341 307.078 83.9928 307.797 87.6801C308.675 92.1958 327.633 98.2204 327.633 98.2204C327.883 101.246 332.526 103.239 332.526 103.239C332.526 103.239 339.557 121.808 337.676 129.085C335.818 136.27 342.512 154.045 342.69 154.545L341.407 156.163L309.67 196.286Z" fill="#E8F5FF"/>
<path opacity="0.1" d="M273.097 63.6649C273.097 63.6649 284.703 60.3747 287.34 67.1481C289.978 73.9215 295.877 101.276 295.877 101.276C295.877 101.276 280.559 104.162 276.544 101.276C274.189 99.5636 271.274 98.8019 268.382 99.1432L259.72 105.039L257.162 104.283C257.162 104.283 271.019 83.694 274.032 76.6975C277.044 69.7009 278.062 66.5732 273.097 63.6649Z" fill="black"/>
<path d="M272.593 62.1521C272.593 62.1521 284.207 58.8619 286.856 65.6353C289.504 72.4087 295.393 99.7634 295.393 99.7634C295.393 99.7634 280.078 102.649 276.06 99.7634C273.706 98.0507 270.792 97.2889 267.901 97.6304L259.232 103.526L256.674 102.77C256.674 102.77 270.531 82.1812 273.543 75.1846C276.555 68.1881 277.558 65.068 272.593 62.1521Z" fill="#E8F5FF"/>
<path opacity="0.1" d="M194.691 171.28C194.691 171.28 203.352 173.413 204.987 178.306C206.622 183.2 198.584 183.325 198.584 183.325C198.584 183.325 193.688 174.668 194.691 171.28Z" fill="black"/>
<path opacity="0.1" d="M226.954 207.412C226.954 207.412 205.74 250.825 210.637 254.966C215.534 259.107 226.954 207.412 226.954 207.412Z" fill="black"/>
<path opacity="0.1" d="M256.205 175.421C256.205 175.421 273.153 217.589 269.763 224.102C266.372 230.614 277.044 224.102 277.044 224.102L256.205 175.421Z" fill="black"/>
<path d="M279.806 217.075C279.806 217.075 222.561 219.836 239.26 237.652C255.959 255.469 290.227 238.409 290.227 238.409L279.806 217.075Z" fill="#FFC1C7"/>
<path opacity="0.1" d="M271.523 47.6938C271.528 51.7973 270.722 55.8613 269.15 59.6523C268.624 59.7128 268.098 59.7506 267.591 59.7733C266.834 58.113 267.239 56.1956 267.254 54.3689C267.269 52.5423 266.596 50.3941 264.836 49.9025C261.328 48.9154 258.907 55.4695 255.448 54.2857C252.799 53.3856 253.492 49.3692 251.967 47.0509C250.759 45.2167 248.341 44.6985 246.461 43.5488C242.461 41.0944 242.582 37.1687 240.724 33.4549C238.779 29.5633 234.669 30.713 231.101 33.0086C228.392 34.7559 226.053 37.0969 223.155 38.4886C220.646 39.6988 217.827 40.1375 215.045 40.2018C213.333 40.2682 211.62 40.0873 209.959 39.6648C211.913 32.3256 216.47 25.9469 222.782 21.7183C229.094 17.4897 236.729 15.6999 244.264 16.6827C251.799 17.6655 258.719 21.3537 263.734 27.0595C268.749 32.7654 271.516 40.0994 271.519 47.6938H271.523Z" fill="black"/>
<path d="M231.113 32.0064C228.399 33.7537 226.065 36.0909 223.166 37.4902C220.657 38.6967 217.838 39.1354 215.057 39.1997C211.651 39.2753 207.984 38.6777 205.657 36.2195C203.519 33.9503 203.008 30.4596 203.913 27.4833C204.817 24.5069 206.985 22.0373 209.532 20.2484C212.079 18.4596 215.034 17.2229 216.722 14.6625C217.615 13.3086 218.046 11.7126 218.788 10.2717C221.16 5.66154 226.496 3.16547 231.654 2.85535C236.811 2.54523 241.924 4.08069 246.835 5.74474C251.747 7.40879 256.697 9.23924 261.881 9.5834C264.189 9.72711 266.588 9.5834 268.73 10.457C271.61 11.6256 273.498 14.4205 274.785 17.2645C276.226 20.4716 277.123 23.9736 276.972 27.4757C276.654 34.9526 271.712 42.2895 273.884 49.4525C274.459 51.3623 275.538 53.3214 274.962 55.2312C274.122 58.0185 270.524 58.6539 267.614 58.7863C266.857 57.126 267.262 55.2048 267.277 53.3819C267.292 51.559 266.619 49.4071 264.863 48.9154C261.351 47.9359 258.929 54.4786 255.478 53.2987C252.848 52.3948 253.529 48.3822 252.001 46.0639C250.794 44.2258 248.372 43.7115 246.495 42.5618C242.495 40.1073 242.616 36.1817 240.758 32.4678C238.798 28.5573 234.685 29.707 231.113 32.0064Z" fill="#99607E"/>
<path d="M175.604 175.92L172.717 176.926C172.717 176.926 173.852 193.99 170.068 198.884C166.284 203.778 182.495 215.944 182.495 215.944C182.495 215.944 204.715 215.819 205.343 214.053C205.971 212.287 204.208 182.436 204.208 182.436C204.208 182.436 192.28 177.792 193.283 170.391C193.283 170.391 189.643 187.829 184.247 187.077C178.851 186.324 172.724 181.82 175.604 175.92Z" fill="#E8F5FF"/>
<path opacity="0.1" d="M185.235 192.356C189.441 192.356 192.852 189.239 192.852 185.394C192.852 181.549 189.441 178.431 185.235 178.431C181.028 178.431 177.617 181.549 177.617 185.394C177.617 189.239 181.028 192.356 185.235 192.356Z" fill="black"/>
<path d="M193.563 176.423C193.563 176.423 192.049 130.253 178.873 140.54C165.697 150.827 165.568 163.13 168.077 166.764C170.586 170.398 178.631 188.593 178.631 188.593C179.889 189.322 181.303 189.743 182.755 189.821C184.208 189.898 185.658 189.631 186.987 189.041C188.316 188.45 189.486 187.554 190.402 186.424C191.317 185.294 191.952 183.964 192.254 182.542L193.563 176.423Z" fill="#FFC1C7"/>
<path opacity="0.1" d="M275.757 59.4746C275.696 59.2717 275.578 59.0906 275.417 58.9527C274.766 58.3589 273.366 58.1509 271.254 58.3324L271.341 59.3308C274.156 59.0888 274.713 59.6485 274.785 59.7431V59.8376L274.872 59.9624C275.223 60.4339 275.471 60.9735 275.602 61.5466C275.732 62.1197 275.741 62.7137 275.628 63.2905C275.012 66.3728 271.224 68.8273 271.186 68.8537L271.095 68.9067L271.038 68.9937C269.404 71.4179 260.159 78.2594 257.741 80.0293L257.529 79.7873C256.447 80.7252 246.934 89.0492 246.419 92.2374C246.086 94.238 243.831 95.0133 243.014 95.2289C242.151 94.5746 239.351 92.3471 237.894 89.851C236.528 87.5024 242.026 82.9187 242.51 81.1299L241.753 80.3546C241.674 80.642 234.613 87.2377 236.577 90.6074C238.151 93.3115 241.027 95.626 242.033 96.3899C241.712 99.3096 239.71 116.453 236.634 120.515C232.812 125.564 229.599 151.009 229.955 159.892C230.269 167.785 228.206 182.693 221.319 189.096C220.127 190.253 218.689 191.126 217.112 191.65C215.534 192.174 213.859 192.335 212.211 192.122H212.128H212.045C211.946 192.122 201.956 193.143 193.563 186.071C186.695 180.296 182.805 170.871 181.995 158.05H181.829L181.761 154.318C183.623 154.027 185.3 153.027 186.439 151.526C187.579 150.026 188.092 148.143 187.872 146.272C187.651 144.401 186.713 142.689 185.256 141.495C183.798 140.3 181.934 139.717 180.055 139.868C178.177 140.018 176.43 140.89 175.181 142.301C173.932 143.712 173.279 145.552 173.36 147.434C173.44 149.316 174.247 151.094 175.611 152.394C176.975 153.693 178.79 154.414 180.675 154.405H180.758L180.826 158.115L180.493 158.137C181.325 171.374 185.412 181.166 192.602 187.213C198.067 191.739 205.047 194.022 212.132 193.601C212.634 193.656 213.14 193.683 213.645 193.684C216.893 193.7 220.017 192.445 222.349 190.185C229.603 183.435 231.809 167.978 231.465 159.817C231.086 150.403 234.458 125.874 237.841 121.407C241.156 117.024 243.165 99.945 243.517 96.6358C244.716 96.2992 247.43 95.2365 247.891 92.4756C248.224 90.4788 254.578 84.3256 258.487 80.9181L258.369 80.7819C260.473 79.2465 267.016 74.4056 270.259 71.2969C271.265 70.3325 272.264 69.3681 273.309 68.4491C274.565 67.3372 276.162 65.571 276.582 63.4834C276.725 62.7943 276.726 62.0832 276.584 61.3938C276.442 60.7044 276.161 60.0513 275.757 59.4746Z" fill="black"/>
<path d="M241.905 96.1517C241.746 96.042 237.977 93.3455 236.089 90.1006C234.129 86.7309 241.19 80.139 241.265 79.8516L242.022 80.6269C241.542 82.4119 236.043 86.9994 237.409 89.3442C239.131 92.3054 242.756 94.8961 242.794 94.9225L241.905 96.1517Z" fill="#353146"/>
<path d="M257.249 80.7631L256.659 79.95C256.78 79.863 268.666 71.2704 270.539 68.4907L270.599 68.4075L270.686 68.3508C270.724 68.3243 274.512 65.8736 275.129 62.7876C275.243 62.2114 275.234 61.6178 275.104 61.0451C274.973 60.4725 274.724 59.9335 274.372 59.4633L274.285 59.3347V59.2439C274.209 59.1456 273.653 58.5897 270.838 58.8317L270.751 57.8295C272.866 57.648 274.262 57.856 274.913 58.4497C275.075 58.5891 275.194 58.7713 275.257 58.9754C275.667 59.5504 275.954 60.2031 276.101 60.8932C276.248 61.5834 276.252 62.2963 276.113 62.988C275.693 65.0794 274.1 66.8456 272.839 67.9537C271.799 68.8727 270.796 69.8447 269.793 70.8015C265.99 74.4435 257.665 80.4643 257.249 80.7631Z" fill="#E8F5FF"/>
<path d="M181.272 153.001L180.27 153.019L180.381 159.111L181.384 159.093L181.272 153.001Z" fill="#E8F5FF"/>
<path d="M180.186 153.924C184.23 153.924 187.509 150.648 187.509 146.606C187.509 142.565 184.23 139.288 180.186 139.288C176.143 139.288 172.864 142.565 172.864 146.606C172.864 150.648 176.143 153.924 180.186 153.924Z" fill="#00C4DE"/>
<path d="M180.186 152.684C183.545 152.684 186.267 149.963 186.267 146.606C186.267 143.25 183.545 140.529 180.186 140.529C176.828 140.529 174.105 143.25 174.105 146.606C174.105 149.963 176.828 152.684 180.186 152.684Z" fill="#E8F5FF"/>
<path d="M213.168 193.196C212.663 193.197 212.158 193.17 211.655 193.116C204.571 193.533 197.592 191.251 192.125 186.729C184.935 180.678 180.856 170.898 180.016 157.65L181.53 157.555C182.34 170.376 186.23 179.804 193.101 185.575C201.495 192.629 211.481 191.626 211.579 191.626H211.662H211.746C213.394 191.839 215.07 191.677 216.647 191.153C218.225 190.63 219.664 189.757 220.858 188.601C227.741 182.198 229.803 167.29 229.489 159.397C229.111 150.506 232.323 125.061 236.149 120.016C239.498 115.595 241.576 95.6676 241.598 95.4672L241.655 94.8999L242.215 94.8015C242.249 94.8015 245.519 94.1813 245.927 91.7382C246.457 88.5538 255.955 80.2298 257.033 79.2881L258.021 80.4227C254.097 83.8264 247.744 89.9834 247.426 91.984C246.964 94.7524 244.251 95.8113 243.055 96.1441C242.677 99.4571 240.682 116.532 237.379 120.916C233.996 125.382 230.624 149.912 231.003 159.325C231.328 167.486 229.145 182.947 221.891 189.694C219.555 191.959 216.423 193.216 213.168 193.196Z" fill="#353146"/>
<g opacity="0.1">
<path d="M274.747 38.7533C275.367 36.4615 276.116 34.1545 276.639 31.8324C276.014 34.1658 275.261 36.4615 274.747 38.7533Z" fill="black"/>
<path d="M268.416 56.7629C267.659 55.1026 268.064 53.1814 268.079 51.3585C268.094 49.5356 267.421 47.4026 265.665 46.892C262.153 45.9125 259.731 52.459 256.28 51.2753C253.631 50.3714 254.331 46.3588 252.803 44.0405C251.596 42.2025 249.177 41.6881 247.301 40.5384C243.297 38.0839 243.418 34.1583 241.564 30.4445C239.615 26.5491 235.509 27.6988 231.937 29.9982C229.224 31.7454 226.889 34.0864 223.991 35.482C221.482 36.6884 218.663 37.1271 215.881 37.1914C212.495 37.2708 208.809 36.6695 206.482 34.2112C204.688 32.3203 204.041 29.5481 204.412 26.95C204.348 27.1277 204.291 27.3055 204.234 27.4832C203.326 30.4596 203.856 33.9579 205.978 36.2194C208.306 38.6777 211.991 39.2752 215.378 39.1996C218.163 39.1353 220.979 38.6966 223.491 37.4902C226.397 36.0909 228.732 33.7536 231.438 32.0064C235.01 29.707 239.119 28.5573 241.064 32.4527C242.919 36.1665 242.801 40.0921 246.801 42.5466C248.693 43.6812 251.096 44.2107 252.307 46.0487C253.821 48.3746 253.151 52.3796 255.785 53.2835C259.232 54.4635 261.654 47.9207 265.165 48.9003C266.921 49.3919 267.598 51.5476 267.579 53.3667C267.561 55.1858 267.167 57.1108 267.916 58.7711C270.826 58.6387 274.425 58.0147 275.269 55.2161C275.385 54.8144 275.438 54.3973 275.428 53.9794C274.198 56.101 271.034 56.6456 268.416 56.7629Z" fill="black"/>
</g>
<path opacity="0.1" d="M336.806 149.95L341.199 154.594C341.199 154.594 344.714 180.186 346.47 182.58C348.226 184.974 352.373 194.497 348.479 201.648C348.479 201.648 347.223 205.54 347.976 207.17C348.729 208.8 342.33 216.958 342.33 216.958C342.33 216.958 333.918 224.484 332.159 225.615C330.399 226.745 321.113 235.777 317.976 235.901C314.839 236.026 313.814 239.918 313.814 239.918L296.112 240.546C296.112 240.546 286.334 240.035 284.207 241.415C284.207 241.415 285.342 226.484 274.417 216.697L288.35 211.678C288.35 211.678 293.625 209.409 295.256 207.038C296.282 205.584 297.738 204.488 299.419 203.903C299.419 203.903 303.309 201.142 303.434 199.637C303.559 198.131 308.19 196.286 308.19 196.286L305.568 173.916L306.949 136.777C306.949 136.777 311.343 105.659 320.632 107.418C329.922 109.177 336.806 149.95 336.806 149.95Z" fill="black"/>
<path d="M338.319 149.95L342.713 154.594C342.713 154.594 346.228 180.186 347.984 182.58C349.74 184.974 353.887 194.497 349.993 201.648C349.993 201.648 348.741 205.54 349.494 207.17C350.247 208.8 343.844 216.958 343.844 216.958C343.844 216.958 335.432 224.484 333.672 225.615C331.913 226.745 322.627 235.777 319.49 235.901C316.353 236.026 315.327 239.918 315.327 239.918L297.625 240.546C297.625 240.546 287.84 240.035 285.721 241.415C285.721 241.415 286.856 226.484 275.931 216.697L289.864 211.678C289.864 211.678 295.139 209.409 296.77 207.038C297.796 205.584 299.252 204.488 300.933 203.903C300.933 203.903 304.823 201.142 304.947 199.637C305.072 198.131 309.704 196.286 309.704 196.286L307.082 173.916L308.463 136.777C308.463 136.777 312.856 105.659 322.146 107.418C331.436 109.177 338.319 149.95 338.319 149.95Z" fill="#E8F5FF"/>
<path opacity="0.1" d="M321.987 187.466C321.987 187.466 334.917 184.063 338.308 188.223C341.699 192.383 321.987 187.466 321.987 187.466Z" fill="black"/>
<path opacity="0.1" d="M318.975 193.173C323.368 196.248 336.927 196.373 336.927 196.373L318.975 193.173Z" fill="black"/>
<path opacity="0.1" d="M325.627 208.543C326.006 208.668 334.948 218.206 338.701 215.32C342.455 212.435 325.627 208.543 325.627 208.543Z" fill="black"/>
<path opacity="0.1" d="M205.203 128.495C205.203 128.495 207.829 146.565 206.535 153.924C205.241 161.284 209.964 170.402 209.964 170.402L205.203 128.495Z" fill="black"/>
<path d="M147.064 135.843C144.037 138.214 141.827 143.827 140.227 149.995C137.434 160.755 136.522 173.231 136.522 173.231C136.522 173.231 112.417 167.709 114.173 165.202C115.278 163.625 113.795 151.742 112.557 143.127C111.82 138.036 111.161 134.084 111.161 134.084C111.161 134.084 155.352 129.315 147.064 135.843Z" fill="#FFCCD0"/>
<path opacity="0.1" d="M147.064 135.34C144.037 137.715 141.827 143.324 140.227 149.492C135.424 150.949 130.316 151.081 125.445 149.872C120.574 148.664 116.121 146.161 112.557 142.628C111.82 137.534 111.161 133.581 111.161 133.581C111.161 133.581 155.352 128.816 147.064 135.34Z" fill="black"/>
<path d="M160.021 121.823C160.023 128.401 157.697 134.768 153.455 139.797C149.212 144.826 143.326 148.192 136.838 149.301C130.351 150.409 123.68 149.188 118.006 145.854C112.333 142.519 108.023 137.286 105.839 131.081C103.655 124.876 103.737 118.098 106.072 111.948C108.407 105.798 112.844 100.672 118.597 97.4768C124.35 94.2817 131.049 93.2237 137.508 94.4901C143.966 95.7565 149.768 99.2656 153.887 104.396C157.856 109.339 160.02 115.486 160.021 121.823Z" fill="#FFCCD0"/>
<path opacity="0.1" d="M181.999 296.004H174.052L173.383 281.977L172.683 267.458C172.683 267.458 174.488 267.189 177.364 266.788L178.525 266.633H178.62C179.248 269.579 179.869 272.605 180.466 275.627C181.462 280.991 181.98 286.433 182.014 291.889C182.014 292.267 182.014 292.645 182.014 293.001C182.037 294.011 182.014 295.02 181.999 296.004Z" fill="black"/>
<path d="M180.474 296.004H80.8164C81.2478 295.024 81.5354 294.431 81.5354 294.431C81.5354 294.431 89.5084 259.569 93.5612 244.819C93.5624 244.807 93.5624 244.794 93.5612 244.781C94.0675 242.778 94.6789 240.802 95.3927 238.863C95.4388 238.731 95.4984 238.604 95.5705 238.484C97.5761 235.224 100.089 231.711 96.5733 226.692C93.0579 221.674 94.3029 199.591 94.3029 199.591C94.3029 199.591 98.5713 180.769 103.089 170.731C103.775 169.177 104.748 167.765 105.958 166.571C106.351 166.187 106.771 165.83 107.214 165.505C107.551 165.252 107.902 165.018 108.266 164.805L108.338 164.76C110.236 163.684 112.344 163.03 114.517 162.842C116.061 162.681 117.62 162.724 119.153 162.971C126.479 164.045 132.344 165.841 137.006 167.887C149.641 173.435 153.467 180.871 153.543 181.026L153.573 181.09C154.08 182.274 161.497 199.58 164.168 207.654C164.861 209.757 165.239 211.236 165.088 211.64C164.331 213.645 170.862 238.738 170.862 238.738C170.862 238.738 173.89 250.84 176.917 265.026C177.049 265.616 177.174 266.206 177.295 266.804C177.836 269.379 178.374 272.004 178.892 274.625C179.897 280.026 180.415 285.506 180.44 291C180.495 292.712 180.507 294.38 180.474 296.004Z" fill="#FF748E"/>
<path opacity="0.1" d="M113.924 154.212C113.924 154.212 107.048 151.565 107.131 155.581C107.214 159.597 108.807 161.519 108.304 162.105C107.801 162.691 108.554 166.204 108.554 166.204C108.554 166.204 117.844 166.204 122.112 168.126C126.381 170.047 142.115 173.897 144.124 175.069C146.134 176.242 153.584 181.498 153.584 181.498L154.254 171.544C154.254 171.544 146.554 165.187 133.919 161.927C121.284 158.667 113.924 154.212 113.924 154.212Z" fill="black"/>
<path d="M113.924 153.709C113.924 153.709 107.048 151.061 107.131 155.078C107.214 159.094 108.807 161.015 108.304 161.602C107.801 162.188 108.554 165.701 108.554 165.701C108.554 165.701 117.844 165.701 122.112 167.626C126.381 169.551 142.115 173.398 144.124 174.566C146.134 175.735 153.584 180.995 153.584 180.995L154.262 171.072C154.262 171.072 146.561 164.714 133.926 161.454C121.291 158.194 113.924 153.709 113.924 153.709Z" fill="#FF748E"/>
<path opacity="0.1" d="M134.679 177.664C134.679 177.664 147.818 191.88 147.148 195.817C146.478 199.754 134.679 177.664 134.679 177.664Z" fill="black"/>
<path opacity="0.1" d="M113.337 229.018C113.337 229.018 103.707 237.887 100.869 238.39C98.0305 238.893 103.044 240.565 106.306 239.23C109.568 237.894 116.523 234.381 116.523 234.381L113.337 229.018Z" fill="black"/>
<path d="M184.387 296.004H161.928C158.787 293.281 155.817 290.758 153.925 289.242C150.898 286.814 148.714 283.24 147.322 280.366C147.008 279.711 146.735 279.099 146.504 278.543C146.091 277.585 145.727 276.607 145.415 275.612L162.046 265.741C162.965 266.522 163.828 267.366 164.63 268.267L164.831 268.498C165.754 269.587 166.568 270.824 166.639 271.837C166.723 273.017 170.007 277.582 173.364 281.965C176.769 286.424 180.258 290.686 180.489 290.974C180.489 290.974 181.064 291.757 182.003 292.959C182.665 293.829 183.482 294.873 184.387 296.004Z" fill="#FFCCD0"/>
<path opacity="0.1" d="M153.887 104.396C153.089 106.196 152.373 108.065 152.267 110.069C151.969 115.856 152.453 128.793 146.043 131.698C142.868 133.128 139.47 129.989 135.988 129.913C133.483 129.86 131.186 131.448 129.658 133.434C128.129 135.419 127.179 137.776 126.07 140.022C125.061 142.061 123.899 144.021 122.593 145.884C122.202 146.454 121.773 146.996 121.306 147.506C117.397 145.858 113.917 143.34 111.129 140.143C108.342 136.947 106.322 133.157 105.222 129.061C104.122 124.966 103.972 120.674 104.784 116.513C105.595 112.351 107.346 108.429 109.904 105.046C112.461 101.663 115.758 98.9084 119.542 96.9916C123.326 95.0748 127.498 94.0467 131.74 93.9854C135.982 93.9242 140.182 94.8316 144.02 96.6384C147.858 98.4451 151.233 101.104 153.887 104.411V104.396Z" fill="black"/>
<path d="M151.764 109.048C151.461 114.834 151.95 127.772 145.536 130.673C142.361 132.103 138.963 128.967 135.481 128.892C132.976 128.835 130.683 130.427 129.151 132.409C127.618 134.391 126.676 136.751 125.563 139.001C124.554 141.04 123.391 142.999 122.086 144.863C121.306 145.967 120.443 147.075 119.244 147.696C117.155 148.785 114.623 148.172 112.383 147.472C109.477 146.557 106.614 145.526 103.793 144.379C103.858 143.953 103.891 143.523 103.892 143.093C103.809 143.252 103.718 143.399 103.627 143.558L103.449 143.868C103.127 144.436 102.813 145.003 102.526 145.585C102.416 145.808 102.31 146.039 102.215 146.27C101.835 147.128 101.596 148.043 101.508 148.978C101.315 151.5 102.56 153.894 103.665 156.163C107.914 164.941 110.54 175.205 107.343 184.414C105.958 188.419 103.559 191.978 101.807 195.847C98.7441 202.699 97.8426 210.322 99.2222 217.699C100.096 222.283 101.848 226.821 101.417 231.469C100.66 239.468 93.758 245.421 86.8445 249.513C83.1096 251.714 78.5385 253.673 74.5728 251.933C77.1005 248.983 77.7514 244.902 78.2963 241.052C79.7872 230.551 81.2819 220.045 82.7804 209.534C83.3783 205.351 83.9749 201.168 84.5703 196.985C85.6828 189.127 86.8105 181.181 86.1142 173.273C85.6071 167.445 84.1767 161.258 86.7045 155.982C88.0403 153.187 90.4205 150.872 91.1622 147.862C91.7714 145.415 91.2038 142.813 91.6049 140.321C91.8244 139.187 92.1961 138.088 92.7098 137.053C93.364 135.649 94.218 134.347 95.2452 133.188C94.231 132.893 93.285 132.488 92.7098 131.641C94.337 130.582 94.583 128.196 93.8451 126.403C93.1072 124.611 91.6314 123.245 90.3032 121.831C88.9749 120.417 87.6959 118.768 87.5294 116.839C87.2078 113.167 90.8783 110.323 91.5254 106.699C92.1801 103.012 89.5918 99.4268 89.7999 95.6941C90.0421 91.1822 94.1894 87.9033 98.2838 86.001C104.462 83.1424 111.288 81.9681 118.067 82.5973C123.584 83.1192 128.923 84.8248 134.426 85.4866C137.744 85.8648 141.108 85.9027 144.404 86.4851C147.7 87.0675 151.004 88.2966 153.323 90.7133C159.438 97.0858 152.112 102.331 151.764 109.048Z" fill="#FFE0D0"/>
<path opacity="0.1" d="M146.648 280.369C144.718 279.533 141.207 280.033 135.179 278.198C129.151 276.364 127.989 268.074 127.989 268.074V268.048C127.917 267.859 127.357 266.626 123.565 262.307C119.376 257.538 110.321 233.451 110.321 233.451C110.321 233.451 102.291 224.832 102.545 221.655C102.798 218.478 101.118 210.025 101.285 200.571C101.451 191.116 119.361 184.845 119.361 184.845C153.845 178.738 145.725 218.471 144.805 221.481C143.886 224.491 148.657 232.622 148.657 232.622C147.984 236.162 151.42 241.642 151.42 241.642C151.42 241.642 152.252 246.491 152.423 248.333C152.432 248.418 152.451 248.501 152.479 248.582C153.032 250.318 157.535 251.891 159.366 252.848C161.292 253.854 167.487 262.636 167.487 262.636C168.823 269.084 148.57 281.216 146.648 280.369Z" fill="black"/>
<path d="M147.651 278.856C145.725 278.017 142.209 278.52 136.185 276.682C130.161 274.844 128.995 266.561 128.995 266.561V266.535C128.927 266.342 128.363 265.113 124.572 260.794C120.383 256.025 111.327 231.934 111.327 231.934C111.327 231.934 103.298 223.319 103.547 220.142C103.797 216.965 102.124 208.513 102.291 199.065C102.457 189.618 120.356 183.352 120.356 183.352C154.84 177.244 146.72 216.977 145.8 219.987C144.881 222.997 149.652 231.129 149.652 231.129C148.979 234.668 152.415 240.148 152.415 240.148C152.415 240.148 153.247 244.997 153.421 246.839C153.428 246.924 153.446 247.008 153.474 247.088C154.027 248.824 158.53 250.398 160.365 251.354C162.288 252.357 168.486 261.142 168.486 261.142C169.829 267.579 149.577 279.711 147.651 278.856Z" fill="#FF748E"/>
<path opacity="0.1" d="M121.038 204.095C121.038 204.095 136.102 219.98 140.034 219.98C143.965 219.98 121.038 204.095 121.038 204.095Z" fill="black"/>
<path d="M147.651 278.857C145.725 278.017 142.21 278.52 136.185 276.682C130.161 274.844 128.996 266.561 128.996 266.561V266.535C132.988 263.888 143.099 256.411 147.084 253.676C149.888 251.759 152.177 248.942 153.516 247.073C154.069 248.809 158.572 250.382 160.407 251.339C162.33 252.341 168.528 261.127 168.528 261.127C169.83 267.579 149.577 279.711 147.651 278.857Z" fill="#FF748E"/>
<g opacity="0.1">
<path d="M92.7324 131.683C92.7513 131.713 92.7778 131.74 92.8005 131.77C92.9141 131.626 93.0314 131.482 93.1524 131.346C93.0235 131.472 92.8828 131.584 92.7324 131.683Z" fill="black"/>
<path d="M101.512 149.019C101.671 146.92 102.794 145.071 103.846 143.225C103.158 142.961 102.469 142.692 101.788 142.412C101.853 141.988 101.886 141.559 101.886 141.13C100.823 143.021 99.665 144.882 99.5023 147.011C99.3093 149.537 100.554 151.928 101.659 154.197C105.912 162.971 108.535 173.235 105.337 182.448C103.949 186.449 101.553 190.012 99.8012 193.88C96.7396 200.732 95.8394 208.353 97.2205 215.729C98.087 220.316 99.8428 224.851 99.4114 229.499C98.6546 237.497 91.7563 243.45 84.839 247.538C82.0123 249.21 78.7088 250.742 75.549 250.632C75.2566 251.103 74.9303 251.551 74.5728 251.975C78.5423 253.726 83.1096 251.755 86.8445 249.547C93.7656 245.462 100.679 239.524 101.436 231.511C101.867 226.863 100.111 222.328 99.2412 217.741C97.8597 210.366 98.7572 202.745 101.814 195.892C103.555 192.027 105.977 188.461 107.35 184.46C110.548 175.247 107.922 164.983 103.672 156.209C102.571 153.924 101.319 151.546 101.512 149.019Z" fill="black"/>
<path d="M153.316 90.7587C152.943 90.377 152.544 90.0231 152.12 89.6997C156.706 95.6449 150.084 100.698 149.755 107.097C149.46 112.883 149.944 125.825 143.53 128.722C140.359 130.155 136.957 127.016 133.48 126.94C130.971 126.887 128.678 128.48 127.145 130.461C125.612 132.443 124.67 134.803 123.561 137.049C122.55 139.088 121.386 141.048 120.08 142.911C119.323 144.02 118.438 145.124 117.234 145.748C115.153 146.833 112.622 146.224 110.378 145.521C108.196 144.835 106.034 144.079 103.892 143.252C103.887 143.646 103.855 144.039 103.793 144.428C106.616 145.578 109.481 146.609 112.387 147.522C114.627 148.225 117.159 148.834 119.244 147.748C120.443 147.124 121.314 146.016 122.089 144.908C123.397 143.047 124.559 141.089 125.567 139.05C126.68 136.804 127.618 134.44 129.154 132.458C130.691 130.476 132.98 128.888 135.485 128.941C138.966 129.017 142.368 132.156 145.539 130.722C151.953 127.825 151.465 114.884 151.764 109.097C152.112 102.369 159.438 97.1274 153.316 90.7587Z" fill="black"/>
</g>
<path opacity="0.1" d="M103.453 143.872C103.131 144.439 102.817 145.007 102.53 145.589C102.42 145.812 102.314 146.043 102.219 146.274C100.237 144.277 95.4081 139.53 92.7139 138.059C93.369 136.656 94.2228 135.354 95.2492 134.194C95.2492 134.194 101.671 137.586 103.453 143.872Z" fill="black"/>
<path d="M103.631 143.562C102.144 136.834 95.2492 133.192 95.2492 133.192C94.222 134.351 93.368 135.653 92.7139 137.057C95.5557 138.611 100.793 143.823 102.53 145.589L103.631 143.562Z" fill="#FF748E"/>
</g>
<defs>
<linearGradient id="paint0_linear_223_198" x1="276.249" y1="36.0834" x2="276.249" y2="29.1322" gradientUnits="userSpaceOnUse">
<stop stop-color="#808080" stop-opacity="0.25"/>
<stop offset="0.54" stop-color="#808080" stop-opacity="0.12"/>
<stop offset="1" stop-color="#808080" stop-opacity="0.1"/>
</linearGradient>
<linearGradient id="paint1_linear_223_198" x1="212.979" y1="296.004" x2="212.979" y2="3.99829e-05" gradientUnits="userSpaceOnUse">
<stop stop-color="#808080" stop-opacity="0.25"/>
<stop offset="0.54" stop-color="#808080" stop-opacity="0.12"/>
<stop offset="1" stop-color="#808080" stop-opacity="0.1"/>
</linearGradient>
<clipPath id="clip0_223_198">
<rect width="411" height="296" fill="white"/>
</clipPath>
</defs>
</svg>
